<?xml version="1.0" encoding="UTF-8"?>
<svg width="271px" height="265px" viewBox="0 0 271 265" version="1.1" xmlns="http://www.w3.org/2000/svg" xmlns:xlink="http://www.w3.org/1999/xlink">
    <!-- Generator: Sketch 58 (84663) - https://sketch.com -->
    <title>Group 14</title>
    <desc>Created with Sketch.</desc>
    <g id="Page-1" stroke="none" stroke-width="1" fill="none" fill-rule="evenodd">
        <g id="Group-14">
            <circle id="Oval" fill="#F6F6F7" cx="132.5" cy="132.5" r="132.5"></circle>
            <g id="music" transform="translate(29.000000, 5.000000)" fill-rule="nonzero">
                <g id="football" transform="translate(89.000000, 0.000000)">
                    <g id="Group" transform="translate(27.000000, 2.000000)">
                        <path d="M75.4331296,38.2970932 C75.4331296,59.4480152 58.5883618,76.5941865 37.8092403,76.5941865 C17.0301189,76.5941865 0.18535096,59.4480152 0.18535096,38.2970932 C0.18535096,17.1461711 17.0301189,0 37.8092403,0 C58.5883618,0 75.4331296,17.1461711 75.4331296,38.2970932 Z" id="Path" fill="#79DE12"></path>
                        <polygon id="Path" fill="#FFFFFF" points="23.6861231 2.79050584 37.7720118 11.5627405 37.7720118 24.8484835 26.0117245 33.5457349 12.2878248 30.4101447 9.55350062 13.0132231"></polygon>
                        <polygon id="Path" fill="#FFFFFF" points="0.42298073 42.5929082 12.2878248 30.4101447 26.0117245 33.5457349 30.5037155 47.619205 22.0219239 60.904948 5.33557587 57.6443858"></polygon>
                        <polygon id="Path" fill="#FFFFFF" points="50.5889585 2.26642943 37.846469 11.5627405 37.846469 24.8484835 49.6075483 33.5457349 63.3314478 30.4101447 65.4043698 12.267422"></polygon>
                        <polygon id="Path" fill="#FFFFFF" points="75.1741133 42.7888322 63.3314478 30.4101447 49.6075483 33.5457349 45.1147653 47.619205 53.5965566 60.904948 70.2401315 57.7225941"></polygon>
                        <polygon id="Path" fill="#FFFFFF" points="45.1163496 75.8701545 53.5965566 60.904948 45.1147653 47.619205 30.5037155 47.619205 22.0219239 60.904948 30.5037155 75.8701545"></polygon>
                    </g>
                    <path d="M98.6044887,61.1772571 C101.285894,56.4753212 103.071637,51.1800475 103.722448,45.5347944 C103.724841,45.5168885 103.726436,45.4989827 103.728829,45.4810767 C103.905888,43.9265158 104,42.3459101 104,40.7433289 C104,30.1609208 100.024948,20.5088077 93.5200268,13.2577175 C93.4163436,13.1095867 93.2943165,12.9744782 93.1555407,12.8580897 C88.9300537,8.27172844 83.6789012,4.67996057 77.7777351,2.47264704 C77.6716594,2.42381246 77.5615958,2.38311726 77.4491395,2.35381664 C73.2659233,0.831812208 68.7644797,0 64.0748113,0 C58.8443956,0 53.8460704,1.03366094 49.264073,2.90808669 C49.1396533,2.94634033 49.0200188,2.99680241 48.9043722,3.05865948 C43.2703897,5.42875424 38.2808378,9.07830929 34.2834538,13.6500204 C34.1526535,13.7680367 34.0362094,13.9007035 33.9381092,14.0472066 C27.8439328,21.2030696 24.1496227,30.541015 24.1496227,40.7433289 C24.1496227,42.2726584 24.2357596,43.7824544 24.3976647,45.2686472 C24.3992599,45.2873669 24.4016527,45.3052729 24.4040452,45.323179 C24.7007385,48.0204639 25.2566398,50.6379861 26.0454292,53.1505145 L4.59817199,75.0372651 C3.80060934,75.8511713 3.80060934,77.1705134 4.59817199,77.9844195 C4.99695331,78.3913726 5.5193569,78.594849 6.04176028,78.594849 C6.56416386,78.594849 7.08656745,78.3913726 7.48534877,77.9844195 L27.6461373,57.4113132 C28.2076214,58.6834486 28.8313155,59.9222138 29.5132316,61.1210976 C29.5754414,61.2643451 29.6544002,61.3986395 29.7461199,61.5231673 C34.8074524,70.1969653 42.9330206,76.7993721 52.5883142,79.7652462 L38.2050693,94.4424161 C37.4083041,95.2563223 37.4083041,96.5756641 38.2050693,97.3895703 C38.6038506,97.7965234 39.1270517,98 39.6494553,98 C40.1718589,98 40.6942622,97.7965234 41.0930438,97.3895703 L57.2604361,80.8900644 C59.4760652,81.2807394 61.7523089,81.4866578 64.0748113,81.4866578 C78.6183663,81.4866578 91.3690004,73.5079356 98.3492687,61.6159525 C98.4513567,61.480844 98.5374935,61.3343411 98.6044887,61.1772571 L98.6044887,61.1772571 Z M80.938476,61.2594615 L73.6742754,49.8517527 L77.5368713,37.7204813 L86.717615,35.6165339 L89.1063152,35.069589 L99.5440174,46.007674 C98.9099551,50.4776467 97.4807228,54.6887971 95.4070599,58.4864834 L80.938476,61.2594615 Z M54.4761448,49.8517527 L47.2151344,61.2537643 L32.701887,58.411604 C30.6226413,54.5821755 29.1981943,50.3335851 28.5808809,45.8245452 L39.0321419,35.0663333 L50.613549,37.7204813 L53.1872836,45.8050114 L54.4761448,49.8517527 Z M34.356032,20.3183536 L36.1976041,32.0654612 L28.2395239,40.257427 C28.3344339,32.884251 30.5747873,26.0295331 34.356032,20.3183536 Z M58.2023575,48.0701121 L54.5957793,36.74298 L64.037326,29.743387 L73.4788726,36.7437939 L69.8722942,48.0701121 L58.2023575,48.0701121 Z M99.9124915,40.4210221 L91.912938,32.0377885 L93.3270165,19.6306029 C97.418513,25.5175862 99.8462937,32.6864717 99.9124915,40.4210221 Z M89.7196408,15.2184174 L87.9123638,31.0724957 L83.5193887,32.0784837 L76.4075226,33.707924 L66.1540572,26.1060404 L66.1540572,14.8261148 L77.2353925,6.72123703 C81.9737124,8.63717225 86.2175432,11.5558399 89.7196408,15.2184174 Z M72.3646776,5.15690948 L63.9886746,11.2831813 L54.6508111,5.45317132 C57.6552296,4.61647578 60.8143752,4.16719958 64.0748113,4.16719958 C66.9276931,4.16719958 69.7032111,4.51066809 72.3646776,5.15690948 Z M49.6955544,7.24376489 L61.9955657,14.9237835 L61.9955657,26.1060404 L54.7632674,31.4680542 L51.7428978,33.707924 L40.1750491,31.0578455 L37.7983124,15.8972153 C41.1201608,12.2411488 45.1630058,9.27771646 49.6955544,7.24376489 Z M35.8594376,63.2730655 L46.8761704,65.4315446 L52.4870237,75.3563163 C45.8584804,73.0391256 40.1000781,68.7913493 35.8594376,63.2730655 L35.8594376,63.2730655 Z M58.0141329,76.7936747 L50.5720758,63.6295563 L57.8267056,52.2373117 L70.3229172,52.2373117 L77.5775471,63.6295563 L70.1370852,76.7928609 C68.1655103,77.1371433 66.1404987,77.3186469 64.0748113,77.3186469 C62.0091242,77.3194582 59.9849101,77.1379571 58.0141329,76.7936747 L58.0141329,76.7936747 Z M75.6633967,75.3563163 L81.2710597,65.4356141 L92.2455218,63.3316667 C88.0096665,68.8214638 82.2688105,73.0472646 75.6633967,75.3563163 L75.6633967,75.3563163 Z" id="Shape" fill="#000000"></path>
                    <path d="M27.5811972,75.5861306 L0.586717476,102.581393 C-0.195572492,103.363683 -0.195572492,104.631775 0.586717476,105.414065 C0.977862259,105.804428 1.49026224,106 2.00266222,106 C2.5150622,106 3.02746217,105.804428 3.41860696,105.413282 L30.4138694,78.4188028 C31.1953769,77.6365128 31.1953769,76.3684206 30.4138694,75.5861306 C29.6315794,74.8046231 28.3634872,74.8046231 27.5811972,75.5861306 L27.5811972,75.5861306 Z" id="Path" fill="#000000"></path>
                    <path d="M33,99 C32.4742186,99 31.9585936,99.2674735 31.5867186,99.7321358 C31.2148436,100.196798 31,100.841078 31,101.500976 C31,102.157946 31.2140624,102.800273 31.5867186,103.265912 C31.9585936,103.733503 32.4742186,104 33,104 C33.5265624,104 34.0421874,103.733503 34.4140624,103.265912 C34.7859374,102.801249 35,102.157946 35,101.500976 C35,100.841078 34.7867186,100.196798 34.4140624,99.7321358 C34.0421874,99.2674735 33.5265624,99 33,99 Z" id="Path" fill="#000000"></path>
                </g>
                <polygon id="Path" fill="#F8254A" points="69.3412051 146.197917 237.441096 146.197917 237.441096 217.739583 69.3412051 217.739583"></polygon>
                <path d="M109.364989,154.146991 L109.364989,146.197917 L69.3412051,146.197917 L69.3412051,217.739583 L237.441096,217.739583 L237.441096,201.841435 L157.393529,201.841435 C130.868099,201.841435 109.364989,180.487905 109.364989,154.146991 Z" id="Path" fill="#D30137"></path>
                <path d="M70.8695014,104.926868 C58.1033263,95.4271553 40.6553598,95.4271553 27.8891846,104.926868 C15.1230094,114.42658 10.0393554,131.193067 15.3664037,146.228468 C0.530191498,164.261086 2.19900918,190.771258 19.1783119,206.78292 C36.1576146,222.794582 62.6010715,222.794582 79.5803742,206.78292 C96.5596769,190.771258 98.2284945,164.261086 83.3922823,146.228468 C88.7193307,131.193067 83.6356766,114.42658 70.8695014,104.926868 Z" id="Path" fill="#F2CA04"></path>
                <polygon id="Path" fill="#FA8CA0" points="60.9362105 134.625 36.7718512 134.625 40.7992444 57.8229167 56.9088173 57.8229167"></polygon>
                <rect id="Rectangle" fill="#F2CA04" x="31.5187296" y="25.2083333" width="32.5693539" height="32.6145833" rx="16"></rect>
                <ellipse id="Oval" fill="#EAEAEA" cx="49.379343" cy="169.34375" rx="19.9618621" ry="19.9895833"></ellipse>
                <path d="M64.1132062,207.439134 C46.9277319,207.438351 31.287695,197.519998 23.9665535,181.979561 C16.645412,166.439124 18.9595162,148.070793 29.9066634,134.829607 C25.8129308,123.379076 27.7859879,110.636322 35.1512094,100.958333 C16.6619343,107.875322 7.14356336,128.338793 13.7695987,146.926491 C-1.15827948,165.798358 1.68680317,193.124227 20.1824714,208.519541 C38.6781396,223.914855 66.0808379,221.766455 81.9486969,203.677003 C76.3294574,206.155497 70.255257,207.436759 64.1132062,207.439134 L64.1132062,207.439134 Z" id="Path" fill="#F5AF0B"></path>
                <path d="M48.8540309,103.85566 L48.8540309,73.9917763 C48.8540309,69.526869 52.4602816,65.9073465 56.9088173,65.9073465 L57.3316936,65.9073465 L56.9088173,57.8229167 L40.7992444,57.8229167 L36.7718512,134.625 L60.9362105,134.625 L60.1307319,119.264583 C53.4247745,117.147899 48.8606342,110.91128 48.8540309,103.85566 L48.8540309,103.85566 Z" id="Path" fill="#F8254A"></path>
                <path d="M39.6610681,33.3619792 L39.6610681,25.2083333 C35.1641787,25.2083333 31.5187296,28.8588449 31.5187296,33.3619792 L31.5187296,49.6692708 C31.5187296,54.1724051 35.1641787,57.8229167 39.6610681,57.8229167 L55.945745,57.8229167 C60.4426344,57.8229167 64.0880835,54.1724051 64.0880835,49.6692708 L55.945745,49.6692708 C46.9519663,49.6692708 39.6610681,42.3682477 39.6610681,33.3619792 Z" id="Path" fill="#F5AF0B"></path>
                <path d="M48.7638636,149.354167 C40.5467749,149.371577 33.2252523,154.843198 30.4681053,163.027285 C32.5752574,162.19444 34.8038447,161.757273 37.0533291,161.735507 C47.8325784,161.735507 56.5708865,170.974304 56.5708865,182.370939 C56.5502988,184.749263 56.1368146,187.105493 55.3490874,189.333333 C64.2845599,185.969551 69.627341,176.287724 68.0000146,166.408179 C66.3726883,156.528633 58.2488139,149.326361 48.7638636,149.354167 L48.7638636,149.354167 Z" id="Path" fill="#EAEAEA"></path>
                <g id="Group" transform="translate(0.000000, 21.000000)" fill="#230135">
                    <path d="M48.7306207,173.286783 C62.0484823,173.286783 72.8447423,162.461229 72.8447423,149.107232 C72.8447423,135.753235 62.0484823,124.927681 48.7306207,124.927681 C35.4127591,124.927681 24.6164991,135.753235 24.6164991,149.107232 C24.6297916,162.455705 35.4182689,173.273455 48.7306207,173.286783 Z M48.7306207,132.987531 C57.6091951,132.987531 64.8067018,140.204567 64.8067018,149.107232 C64.8067018,158.009897 57.6091951,165.226933 48.7306207,165.226933 C39.8520463,165.226933 32.6545397,158.009897 32.6545397,149.107232 C32.6545397,140.204567 39.8520463,132.987531 48.7306207,132.987531 Z" id="Shape"></path>
                    <path d="M90.4520701,128.957606 L197.434371,128.957606 C199.654014,128.957606 201.453391,127.153347 201.453391,124.927681 C201.453391,122.702015 199.654014,120.897756 197.434371,120.897756 L87.9884107,120.897756 C88.5741036,118.25032 88.8865534,115.549479 88.9208234,112.837905 C88.8421857,96.0674022 78.4716246,81.0773183 62.8333628,75.1298953 L60.9645184,39.4932668 C64.2873592,38.2440343 66.8926139,35.5904324 68.0862223,32.2394015 L76.8637626,32.2394015 C79.0834062,32.2394015 80.8827829,30.4351425 80.8827829,28.2094763 C80.8827829,25.9838101 79.0834062,24.1795511 76.8637626,24.1795511 L68.8257221,24.1795511 L68.8257221,16.1197007 L76.8637626,16.1197007 C79.0834062,16.1197007 80.8827829,14.3154418 80.8827829,12.0897756 C80.8827829,9.86410934 79.0834062,8.05985037 76.8637626,8.05985037 L68.0862223,8.05985037 C66.3891727,3.24670574 61.8598976,0.021162723 56.7686613,-7.10542736e-15 L40.6925802,-7.10542736e-15 C35.6013439,0.021162723 31.0720687,3.24670574 29.3750191,8.05985037 L20.5974789,8.05985037 C18.3778353,8.05985037 16.5784586,9.86410934 16.5784586,12.0897756 C16.5784586,14.3154418 18.3778353,16.1197007 20.5974789,16.1197007 L28.6355194,16.1197007 L28.6355194,24.1795511 L20.5974789,24.1795511 C18.3778353,24.1795511 16.5784586,25.9838101 16.5784586,28.2094763 C16.5784586,30.4351425 18.3778353,32.2394015 20.5974789,32.2394015 L29.3750191,32.2394015 C30.5686275,35.5904324 33.1738822,38.2440343 36.496723,39.4932668 L32.6545397,112.624319 C32.5960337,113.729624 32.9934933,114.810401 33.75364,115.613007 C34.5137866,116.415614 35.5696959,116.869386 36.6735599,116.86783 L60.7876815,116.86783 C61.8915456,116.869386 62.9474548,116.415614 63.7076015,115.613007 C64.4677481,114.810401 64.8652077,113.729624 64.8067018,112.624319 L63.3116263,84.1770773 C77.7092481,91.4474595 84.4481569,108.335259 79.0259955,123.557506 C78.5559591,124.891838 78.8183479,126.375604 79.717267,127.466534 C93.2272981,143.861919 91.7053782,167.962155 76.2407985,182.517863 C60.7762189,197.07357 36.6930606,197.07357 21.228481,182.517863 C5.76390131,167.962155 4.24198143,143.861919 17.7520125,127.466534 C18.6509316,126.375604 18.9133204,124.891838 18.443284,123.557506 C14.0593955,111.267044 17.5581636,97.5385791 27.2851286,88.8638803 C28.9142894,87.3738097 29.0418393,84.8457679 27.5709729,83.1984385 C26.1001066,81.5511091 23.5801969,81.3997746 21.9237556,82.8592918 C10.3752093,93.1633873 5.79590478,109.225807 10.1681213,124.093486 C-4.38452731,143.449637 -2.40780642,170.616332 14.7926249,187.64949 C31.9930562,204.682647 59.1088006,206.325494 78.2294304,191.492901 C97.3500601,176.660308 102.574566,149.929909 90.4520701,128.957606 Z M43.6586172,56.4189526 L53.8026243,56.4189526 L54.4376295,68.5087282 L43.023612,68.5087282 L43.6586172,56.4189526 Z M44.0846333,48.3591022 L44.5066304,40.2992519 L52.946573,40.2992519 L53.3685701,48.3591022 L44.0846333,48.3591022 Z M42.6016148,76.5685786 L54.8596266,76.5685786 L55.4946318,88.6583541 L41.9666096,88.6583541 L42.6016148,76.5685786 Z M40.6925802,8.05985037 L56.7686613,8.05985037 C58.9883049,8.05985037 60.7876815,9.86410934 60.7876815,12.0897756 L60.7876815,28.2094763 C60.7876815,30.4351425 58.9883049,32.2394015 56.7686613,32.2394015 L40.6925802,32.2394015 C38.4729366,32.2394015 36.6735599,30.4351425 36.6735599,28.2094763 L36.6735599,12.0897756 C36.6735599,9.86410934 38.4729366,8.05985037 40.6925802,8.05985037 Z M40.9096073,108.80798 L41.5446125,96.7182045 L55.916629,96.7182045 L56.5516342,108.80798 L40.9096073,108.80798 Z" id="Shape"></path>
                    <path d="M113.034945,141.047382 C110.815301,141.047382 109.015925,142.851641 109.015925,145.077307 L109.015925,177.316708 C109.015925,179.542374 110.815301,181.346633 113.034945,181.346633 L129.111026,181.346633 C131.33067,181.346633 133.130046,179.542374 133.130046,177.316708 C133.130046,175.091042 131.33067,173.286783 129.111026,173.286783 L117.053965,173.286783 L117.053965,145.077307 C117.053965,142.851641 115.254589,141.047382 113.034945,141.047382 Z" id="Path"></path>
                    <path d="M141.168087,145.077307 L141.168087,177.316708 C141.168087,179.542374 142.967464,181.346633 145.187107,181.346633 C147.406751,181.346633 149.206127,179.542374 149.206127,177.316708 L149.206127,145.077307 C149.206127,142.851641 147.406751,141.047382 145.187107,141.047382 C142.967464,141.047382 141.168087,142.851641 141.168087,145.077307 Z" id="Path"></path>
                    <path d="M181.611488,143.662803 L173.320249,165.839481 L165.02901,143.674893 C164.252135,141.589444 161.936337,140.530344 159.856531,141.309327 C157.776725,142.08831 156.720491,144.410391 157.497366,146.49584 L169.554427,178.735242 C170.140645,180.31191 171.642125,181.357396 173.320249,181.357396 C174.998373,181.357396 176.499853,180.31191 177.086071,178.735242 L189.143132,146.49584 C189.645682,145.146791 189.392296,143.631384 188.478422,142.520457 C187.564547,141.40953 186.129024,140.871861 184.7126,141.109983 C183.296175,141.348105 182.114038,142.325844 181.611488,143.674893 L181.611488,143.662803 Z" id="Path"></path>
                    <path d="M217.529472,149.107232 C219.749116,149.107232 221.548492,147.302973 221.548492,145.077307 C221.548492,142.851641 219.749116,141.047382 217.529472,141.047382 L201.453391,141.047382 C199.233747,141.047382 197.434371,142.851641 197.434371,145.077307 L197.434371,177.316708 C197.434371,179.542374 199.233747,181.346633 201.453391,181.346633 L217.529472,181.346633 C219.749116,181.346633 221.548492,179.542374 221.548492,177.316708 C221.548492,175.091042 219.749116,173.286783 217.529472,173.286783 L205.472411,173.286783 L205.472411,165.226933 L217.529472,165.226933 C219.749116,165.226933 221.548492,163.422674 221.548492,161.197007 C221.548492,158.971341 219.749116,157.167082 217.529472,157.167082 L205.472411,157.167082 L205.472411,149.107232 L217.529472,149.107232 Z" id="Path"></path>
                    <path d="M237.624573,120.897756 L213.510452,120.897756 C211.290808,120.897756 209.491431,122.702015 209.491431,124.927681 C209.491431,127.153347 211.290808,128.957606 213.510452,128.957606 L233.605553,128.957606 L233.605553,193.436409 L88.9208234,193.436409 C86.7011798,193.436409 84.9018031,195.240668 84.9018031,197.466334 C84.9018031,199.692 86.7011798,201.496259 88.9208234,201.496259 L237.624573,201.496259 C239.844217,201.496259 241.643594,199.692 241.643594,197.466334 L241.643594,124.927681 C241.643594,122.702015 239.844217,120.897756 237.624573,120.897756 Z" id="Path"></path>
                </g>
            </g>
        </g>
    </g>
</svg>