<?xml version="1.0" encoding="UTF-8"?>
<svg width="308px" height="279px" viewBox="0 0 308 279" version="1.1" xmlns="http://www.w3.org/2000/svg" xmlns:xlink="http://www.w3.org/1999/xlink">
    <!-- Generator: Sketch 58 (84663) - https://sketch.com -->
    <title>Group 14</title>
    <desc>Created with Sketch.</desc>
    <g id="Page-1" stroke="none" stroke-width="1" fill="none" fill-rule="evenodd">
        <g id="Group-14">
            <circle id="Oval" fill="#F6F6F7" cx="139.5" cy="139.5" r="139.5"></circle>
            <g id="train" transform="translate(52.000000, 59.000000)" fill-rule="nonzero">
                <g id="Group" transform="translate(27.826087, 119.159091)" fill="#595959">
                    <path d="M23.6651606,0.138792984 C22.4659648,2.37269911 21.7830617,4.93553953 21.7830617,7.66157609 C21.7830617,16.3292742 28.6774397,23.3558597 37.182551,23.3558597 C45.6871635,23.3558597 52.5815415,16.3292742 52.5815415,7.66157609 C52.5815415,4.93553953 51.8986384,2.37269911 50.6994426,0.138792984 L23.6651606,0.138792984 Z" id="Path"></path>
                    <path d="M21.7830617,7.66157609 C21.7830617,4.93553953 22.4659648,2.37269911 23.6651606,0.138792984 L2.23926363,0.138792984 C1.04006787,2.37269911 0.357164793,4.93553953 0.357164793,7.66157609 C0.357164793,16.3292742 7.25154274,23.3558597 15.7566541,23.3558597 C19.9214151,23.3558597 23.6975847,21.6679743 26.4696025,18.9302446 C23.5808577,16.0776166 21.7830617,12.0846492 21.7830617,7.66157609 Z" id="Path"></path>
                    <path d="M134.25655,0.138792984 C133.057354,2.37269911 132.374451,4.93553953 132.374451,7.66157609 C132.374451,16.3292742 139.268829,23.3558597 147.77394,23.3558597 C156.278553,23.3558597 163.172931,16.3292742 163.172931,7.66157609 C163.172931,4.93553953 162.490028,2.37269911 161.290832,0.138792984 L134.25655,0.138792984 Z" id="Path"></path>
                    <path d="M132.374451,7.66157609 C132.374451,4.93553953 133.057354,2.37269911 134.25655,0.138792984 L112.831152,0.138792984 C111.631956,2.37269911 110.949053,4.93553953 110.949053,7.66157609 C110.949053,16.3292742 117.843431,23.3558597 126.348542,23.3558597 C130.513303,23.3558597 134.289473,21.6679743 137.061491,18.9302446 C134.172247,16.0776166 132.374451,12.0846492 132.374451,7.66157609 L132.374451,7.66157609 Z" id="Path"></path>
                </g>
                <path d="M220.349941,120.272727 L20.8925293,120.272727 C11.1979072,120.272727 3.33913043,112.345761 3.33913043,102.56702 L3.33913043,21.0466162 C3.33913043,11.2678752 11.1979072,3.34090909 20.8925293,3.34090909 L74.9430941,3.34090909 C135.646351,3.34090909 194.365936,25.1456072 240.5787,64.8474364 C247.538032,70.826412 251.547826,79.5830499 251.547826,88.8041426 C251.547826,106.183925 237.580219,120.272727 220.349941,120.272727 Z" id="Path" fill="#EAEAEA"></path>
                <path d="M240.538729,64.8474364 C194.157066,25.1456072 135.22401,3.34090909 74.2995527,3.34090909 L50.0869565,3.34090909 C111.011414,3.34090909 169.94447,25.1456072 216.326132,64.8474364 C223.310824,70.826412 227.334729,79.5830499 227.334729,88.8041426 C227.334729,106.183421 213.316224,120.272727 196.023159,120.272727 L220.236257,120.272727 C237.52882,120.272727 251.547826,106.183925 251.547826,88.8041426 C251.547826,79.5830499 247.523421,70.8259083 240.538729,64.8474364 Z" id="Path" fill="#DFDFDF"></path>
                <path d="M181.551194,26.7272727 L144.695652,26.7272727 L144.695652,63.4772727 L239.304348,63.4772727 C221.641081,48.5668486 202.199049,36.2458322 181.551194,26.7272727 L181.551194,26.7272727 Z" id="Path" fill="#B1E4F9"></path>
                <path d="M238.188826,63.4742436 C220.801721,48.6829656 201.505297,36.3069198 180.884442,26.7277776 C180.883946,26.7277776 180.883946,26.7272727 180.883451,26.7272727 L156.93913,26.7272727 C177.428137,36.2458322 196.720596,48.5668486 214.24748,63.4772727 L238.191304,63.4772727 C238.191304,63.4757582 238.189817,63.4747484 238.188826,63.4742436 L238.188826,63.4742436 Z" id="Path" fill="#90D8F9"></path>
                <polygon id="Path" fill="#B1E4F9" points="34.5043478 26.7272727 103.513043 26.7272727 103.513043 63.4772727 34.5043478 63.4772727"></polygon>
                <path d="M242.284183,96.8863636 L250.603345,96.8863636 C251.217609,94.4862578 251.547826,91.9754914 251.547826,89.3889839 C251.547826,85.4253666 250.764941,81.5502777 249.294019,77.9545455 L242.284685,77.9545455 C236.950024,77.9545455 232.626087,82.1926011 232.626087,87.4202086 C232.625585,92.648308 236.950024,96.8863636 242.284183,96.8863636 L242.284183,96.8863636 Z" id="Path" fill="#F6E738"></path>
                <path d="M3.33913043,102.454545 C3.33913043,112.295405 11.1914356,120.272727 20.8780743,120.272727 L220.171236,120.272727 C232.497598,120.272727 243.150306,113.002597 248.208696,102.454545 L3.33913043,102.454545 Z" id="Path" fill="#61A2F9"></path>
                <path d="M248.208696,102.454545 L224.024933,102.454545 C218.949978,112.843602 208.262383,120.003304 195.895652,120.003304 C217.302382,119.916928 237.741882,124.08743 248.208696,102.454545 Z" id="Path" fill="#5490F9"></path>
                <path d="M78.2336415,120.272727 L50.8783924,120.272727 C49.6649367,122.778694 48.973913,125.653655 48.973913,128.711688 C48.973913,129.019088 48.9809798,129.324207 48.9951132,129.627615 C48.9991513,129.714873 49.0077323,129.800991 49.01278,129.887679 C49.0208562,130.023984 49.029942,130.159719 49.0410468,130.295455 L80.0735109,130.295455 C80.1149017,129.773616 80.1391304,129.246074 80.1391304,128.711688 C80.1381209,125.653655 79.447602,122.778694 78.2336415,120.272727 L78.2336415,120.272727 Z" id="Path" fill="#454545"></path>
                <path d="M49.3510576,129.887679 C49.3460551,129.800421 49.3375508,129.714873 49.3335487,129.627615 C49.3200418,129.324207 49.312538,129.019088 49.312538,128.711688 C49.312538,125.653655 49.9973871,122.778694 51.2,120.272727 L29.7135489,120.272727 C28.510936,122.778694 27.826087,125.653655 27.826087,128.711688 C27.826087,129.246074 27.8505994,129.773616 27.8916204,130.295455 L49.3780714,130.295455 C49.3675661,130.159719 49.3590617,130.023984 49.3510576,129.887679 Z" id="Path" fill="#454545"></path>
                <path d="M189.537989,120.272727 L162.18274,120.272727 C160.969285,122.778694 160.278261,125.653655 160.278261,128.711688 C160.278261,129.019088 160.285328,129.324207 160.299461,129.627615 C160.303499,129.714873 160.31208,129.800991 160.317128,129.887679 C160.325204,130.023984 160.33429,130.159719 160.345395,130.295455 L191.377859,130.295455 C191.41925,129.773616 191.443478,129.246074 191.443478,128.711688 C191.442469,125.653655 190.75195,122.778694 189.537989,120.272727 L189.537989,120.272727 Z" id="Path" fill="#454545"></path>
                <path d="M159.542362,129.887679 C159.537359,129.800421 159.528855,129.714873 159.524853,129.627615 C159.511346,129.324207 159.503842,129.019088 159.503842,128.711688 C159.503842,125.653655 160.188691,122.778694 161.391304,120.272727 L139.904853,120.272727 C138.70224,122.778694 138.017391,125.653655 138.017391,128.711688 C138.017391,129.246074 138.041904,129.773616 138.082925,130.295455 L159.569376,130.295455 C159.55887,130.159719 159.550366,130.023984 159.542362,129.887679 Z" id="Path" fill="#454545"></path>
                <path d="M30.0521739,26.0782097 L30.0521739,63.0126994 C30.0521739,65.1143405 31.7171568,66.8181818 33.7719747,66.8181818 L103.132373,66.8181818 C105.187191,66.8181818 106.852174,65.1143405 106.852174,63.0126994 L106.852174,26.0782097 C106.852174,23.9765686 105.187191,22.2727273 103.132373,22.2727273 L33.7719747,22.2727273 C31.7171568,22.2727273 30.0521739,23.9765686 30.0521739,26.0782097 Z M37.4917756,29.883692 L99.4125722,29.883692 L99.4125722,59.2072171 L37.4917756,59.2072171 L37.4917756,29.883692 Z" id="Shape" fill="#000000"></path>
                <path d="M243.656804,62.2002828 C196.811513,22.1310081 137.065482,0 75.4252832,0 L56.5515905,0 C54.4804534,0 52.8022475,1.68593297 52.8022475,3.76548459 C52.8022475,5.84503622 54.4804534,7.53096919 56.5515905,7.53096919 L75.4252832,7.53096919 C105.365037,7.53096919 134.855369,12.9060729 162.555515,23.1597385 L144.656652,23.1597385 C142.585515,23.1597385 140.907309,24.8456715 140.907309,26.9252231 L140.907309,63.4715104 C140.907309,65.551062 142.585515,67.236995 144.656652,67.236995 L237.9728,67.236995 C238.246752,67.4694509 238.522704,67.6993965 238.795656,67.9328565 C240.715319,69.5751099 242.379028,71.4528315 243.759286,73.5052717 L242.978923,73.5052717 C235.606215,73.5052717 229.607766,79.5290429 229.607766,86.9334918 C229.607766,92.1449225 232.581245,96.6695288 236.911986,98.8941771 L187.076719,98.8941771 C185.005581,98.8941771 183.327376,100.579608 183.327376,102.659662 C183.327376,104.739715 185.005581,106.425146 187.076719,106.425146 L242.222555,106.425146 C236.977974,112.842034 229.210335,116.540744 220.976778,116.540744 C213.350615,116.540744 28.9549262,116.540744 21.3202641,116.540744 C15.0588612,116.540744 9.72979505,112.328924 8.05008938,106.532588 C8.03959122,106.496942 8.02959297,106.460793 8.01959473,106.425146 L174.578409,106.425146 C176.649546,106.425146 178.327752,104.739715 178.327752,102.659662 C178.327752,100.579608 176.649546,98.8941771 174.578409,98.8941771 L7.49868601,98.8941771 L7.49868601,21.4120516 C7.49868601,13.7580766 13.6990995,7.53096919 21.3202641,7.53096919 L44.0537805,7.53096919 C46.1249175,7.53096919 47.8031235,5.84503622 47.8031235,3.76548459 C47.8031235,1.68593297 46.1249175,0 44.0537805,0 L21.3202641,0 C9.56432404,0 0,9.60550017 0,21.4120516 L0,102.660164 C0,114.467217 9.56432404,124.072215 21.3202641,124.072215 L25.4335433,124.072215 C25.2015839,125.276166 25.081105,126.503212 25.081105,127.735781 C25.081105,138.357962 33.6860972,147 44.2627438,147 C48.1375649,147 51.8499143,145.839729 55.0003623,143.693402 C58.0658251,145.779983 61.7606777,147 65.7349813,147 C76.3121278,147 84.91712,138.357962 84.91712,127.735781 C84.91712,126.503714 84.7966411,125.276166 84.5646817,124.072215 L136.264122,124.072215 C136.032163,125.276166 135.911684,126.503212 135.911684,127.735781 C135.911684,138.357962 144.516676,147 155.093823,147 C158.968644,147 162.680993,145.839729 165.831441,143.693402 C168.896904,145.779983 172.591757,147 176.56606,147 C187.142707,147 195.747699,138.357962 195.747699,127.735781 C195.747699,126.503212 195.62722,125.276166 195.395261,124.072215 L220.977278,124.072215 C253.615559,124.072717 268.305985,83.2844862 243.656804,62.2002828 Z M148.405495,59.7065279 L148.405495,30.6912098 L180.690838,30.6912098 C197.667863,38.5289404 213.691555,48.2092482 228.649934,59.7065279 L148.405495,59.7065279 Z M44.2632438,139.469533 C37.8208726,139.469533 32.580291,134.20639 32.580291,127.736283 C32.580291,126.488652 32.7787562,125.249055 33.1626889,124.072717 L46.9037811,124.072717 C45.9304516,129.03663 47.0377576,134.193838 49.6053077,138.1727 C47.9705941,139.020185 46.1479135,139.469533 44.2632438,139.469533 Z M77.418434,127.736283 C77.418434,134.20639 72.1773524,139.469533 65.7349813,139.469533 C57.8698595,139.469533 52.1388637,131.730207 54.6364261,124.072717 L76.8355361,124.072717 C77.2199687,125.249055 77.418434,126.48815 77.418434,127.736283 Z M155.093823,139.469533 C148.651452,139.469533 143.41037,134.20639 143.41037,127.736283 C143.41037,126.488652 143.608835,125.249557 143.993268,124.072717 L157.73386,124.072717 C156.786526,128.978391 157.813346,134.108487 160.435887,138.1727 C158.801173,139.020185 156.978493,139.469533 155.093823,139.469533 Z M188.248513,127.736283 C188.248513,134.20639 183.007932,139.469533 176.56556,139.469533 C168.732933,139.469533 162.982441,131.794973 165.466505,124.072717 L187.666115,124.072717 C188.050048,125.248553 188.248513,126.48815 188.248513,127.736283 Z M242.978423,81.0367429 L247.298666,81.0367429 C248.466961,84.9628882 248.729915,88.9332152 248.178512,92.8317469 L242.978423,92.8317469 C239.73999,92.8317469 237.105952,90.1858664 237.105952,86.9339939 C237.105952,83.6821214 239.73999,81.0367429 242.978423,81.0367429 Z" id="Shape" fill="#000000"></path>
            </g>
        </g>
    </g>
</svg>