<?xml version="1.0" standalone="no"?>
<!DOCTYPE svg PUBLIC "-//W3C//DTD SVG 20010904//EN"
 "http://www.w3.org/TR/2001/REC-SVG-20010904/DTD/svg10.dtd">
<svg version="1.0" xmlns="http://www.w3.org/2000/svg"
 width="180.000000pt" height="180.000000pt" viewBox="0 0 180.000000 180.000000"
 preserveAspectRatio="xMidYMid meet">
<metadata>
Created by potrace 1.11, written by Peter Selinger 2001-2013
</metadata>
<g transform="translate(0.000000,180.000000) scale(0.100000,-0.100000)"
fill="#000000" stroke="none">
<path d="M66 1781 c-15 -10 -37 -32 -47 -47 -18 -28 -19 -62 -19 -834 0 -772
1 -806 19 -834 10 -15 32 -37 47 -47 28 -18 62 -19 834 -19 772 0 806 1 834
19 15 10 37 32 47 47 18 28 19 62 19 834 0 772 -1 806 -19 834 -10 15 -32 37
-47 47 -28 18 -62 19 -834 19 -772 0 -806 -1 -834 -19z m717 -270 c42 -95 196
-94 236 1 l16 38 83 0 82 0 0 -650 0 -650 -82 0 -83 0 -15 32 c-23 49 -62 72
-120 72 -58 0 -97 -24 -119 -72 l-15 -32 -83 0 -83 0 0 650 0 650 83 0 83 0
17 -39z"/>
<path d="M730 901 l0 -381 105 0 c119 0 157 11 197 59 67 78 60 275 -11 327
-13 10 -11 16 16 47 71 81 50 234 -40 301 -24 18 -46 21 -148 24 l-119 4 0
-381z m219 260 c27 -27 36 -84 22 -132 -14 -46 -34 -59 -95 -59 l-46 0 0 105
0 105 50 0 c36 0 55 -5 69 -19z m2 -310 c22 -17 24 -27 24 -100 0 -99 -16
-121 -94 -129 l-51 -5 0 127 0 126 49 0 c33 0 56 -6 72 -19z"/>
</g>
</svg>
