<?xml version="1.0" standalone="no"?>
<!DOCTYPE svg PUBLIC "-//W3C//DTD SVG 20010904//EN"
 "http://www.w3.org/TR/2001/REC-SVG-20010904/DTD/svg10.dtd">
<svg version="1.0" xmlns="http://www.w3.org/2000/svg"
 width="249.000000pt" height="249.000000pt" viewBox="0 0 249.000000 249.000000"
 preserveAspectRatio="xMidYMid meet">
<metadata>
Created by potrace 1.11, written by Peter Selinger 2001-2013
</metadata>
<g transform="translate(0.000000,249.000000) scale(0.100000,-0.100000)"
fill="#000000" stroke="none">
<path d="M125 2431 c-46 -16 -72 -34 -95 -68 -25 -36 -25 -39 -28 -285 -3
-239 -2 -248 16 -248 28 0 85 -25 104 -47 81 -89 32 -231 -87 -250 l-36 -6 3
-677 3 -676 25 -37 c14 -21 43 -46 66 -57 40 -20 59 -20 1161 -18 l1119 3 37
25 c21 14 46 43 57 64 19 39 19 64 20 707 l0 667 -43 10 c-145 37 -146 241 -1
283 l44 13 0 235 c0 266 -6 293 -77 341 l-37 25 -1115 2 c-614 0 -1125 -2
-1136 -6z"/>
</g>
</svg>
