<?xml version="1.0" encoding="UTF-8"?>
<svg width="253px" height="253px" viewBox="0 0 253 253" version="1.1" xmlns="http://www.w3.org/2000/svg" xmlns:xlink="http://www.w3.org/1999/xlink">
    <!-- Generator: Sketch 51.1 (57501) - http://www.bohemiancoding.com/sketch -->
    <title>Cheaper_Icon Copy</title>
    <desc>Created with Sketch.</desc>
    <defs>
        <linearGradient x1="0%" y1="0%" x2="100%" y2="100%" id="linearGradient-1">
            <stop stop-color="#F5A623" offset="0%"></stop>
            <stop stop-color="#F7771C" offset="100%"></stop>
        </linearGradient>
    </defs>
    <g id="Page-1" stroke="none" stroke-width="1" fill="none" fill-rule="evenodd">
        <g id="Desktop-HD-Copy-14" transform="translate(-1442.000000, -2043.000000)">
            <g id="Group-17" transform="translate(-3.000000, 1752.000000)">
                <g id="Cheaper_Icon-Copy" transform="translate(1445.000000, 291.000000)">
                    <circle id="Polygone_Cheaper" fill="url(#linearGradient-1)" cx="126.339886" cy="126.839808" r="126.059233"></circle>
                    <g id="noun_Laurel-Wreath_118521" transform="translate(24.682927, 59.944251)" fill="#FFFFFF">
                        <path d="M197.847393,84.5540475 C204.260222,80.9588632 206.156453,71.8383878 207.989622,67.5153324 L208.041812,67.1907671 L207.672134,67.2234157 C197.642983,68.1241323 192.404426,72.8889037 189.657935,76.4456779 C190.327705,72.6949328 190.675637,68.9000161 190.675637,65.0782123 C190.675637,65.0321202 190.673463,64.9879486 190.673463,64.9418565 L190.716954,64.9937101 C190.716954,64.9937101 195.744577,64.3561026 200.417744,59.5087495 C205.340987,54.4002078 204.101478,45.1933097 204.408093,40.5840991 L204.34938,40.2595339 L204.007971,40.3882077 C194.546385,43.9334588 191.186663,50.0137757 189.805806,54.1370987 C189.279559,50.8549567 188.509758,47.6189067 187.520326,44.448154 C188.488013,43.9910739 192.308745,41.9418957 194.887794,36.9101742 C198.014836,30.7972087 193.937503,22.2528846 192.787152,17.7493017 L192.630582,17.4516235 L192.341364,17.6571175 C184.902135,22.9884377 183.249456,29.1398134 183.029824,33.4340612 C181.86425,31.1428994 180.572551,28.9016708 179.154727,26.7142163 L179.206917,26.7353418 C179.206917,26.7353418 183.071141,23.9986231 184.269333,17.8818165 C185.532762,11.4366037 179.322169,4.25007625 176.988848,0.247745068 L176.758343,0.00192050441 L176.543059,0.259268095 C170.784779,7.1500379 171.156631,13.531874 172.230873,17.6206279 C171.363216,16.6354092 170.462941,15.6655544 169.534397,14.7129843 C169.380002,12.5600988 168.138318,9.8944387 165.293971,7.06937672 C162.169103,3.96200059 156.171619,-0.459000553 145.714077,0.0941047159 L145.353097,0.11330976 L145.464,0.418669961 C147.993034,4.32689643 151.433215,12.842413 158.241817,15.4158889 C162.069073,16.8620287 165.263527,16.9714974 167.246741,16.8197776 C168.286189,17.8933396 169.286495,18.9899476 170.249833,20.1076811 C170.1585,20.0750326 170.073692,20.0443045 169.984534,20.0135764 C165.589713,18.530947 157.956947,17.0502381 148.969419,21.797725 L148.65628,21.9609679 L148.910705,22.1875874 C153.196797,24.6247075 160.69474,30.7799241 168.079605,30.292116 C171.837274,30.0443709 174.559845,29.0322651 176.290808,28.1430716 C178.000026,30.7760831 179.517881,33.4955173 180.846548,36.2840897 C180.600821,36.1170059 180.344221,35.9480015 180.078922,35.7828381 C176.145112,33.3130694 168.997276,30.1115886 158.691954,32.7849307 L158.335324,32.8771149 L158.524512,33.1594291 C162.069073,36.5529604 167.725148,44.3636518 175.199171,45.5543645 C179.235186,46.1977335 182.379625,45.7233689 184.341094,45.1933097 C185.330526,48.3563804 186.089454,51.5866688 186.598305,54.8649699 C186.578734,54.8438443 186.563512,54.8246393 186.546115,54.8035137 C183.540849,51.4695181 177.676014,46.645211 166.931428,46.6951441 L166.56175,46.6970646 L166.653082,47.0158684 C168.995102,51.1430323 171.982971,60.0330472 178.791572,63.0040675 C182.294816,64.5347096 185.332701,64.8880824 187.387676,64.8938439 C187.387676,64.9553 187.389851,65.0167562 187.389851,65.0782123 C187.389851,68.9941208 187.017998,72.8831422 186.285166,76.7222305 C186.243849,76.6281258 186.209056,76.5340211 186.165564,76.4379959 C184.41068,72.4663928 180.420331,66.3284607 170.143278,63.5744574 L169.788822,63.4784321 L169.769251,63.8049179 C170.628209,68.3603543 170.506433,77.6325496 176.016812,82.2494422 C178.889428,84.6558342 181.709855,85.7850908 183.673498,86.3170705 C182.42964,89.8219911 180.872643,93.2616145 179.024252,96.6205767 C179.017728,96.2940909 179.004681,95.9599231 178.978586,95.6161529 C178.682843,91.3622356 177.014943,84.4426582 168.18181,79.0402793 L167.87302,78.8539904 L167.742545,79.1612711 C166.981443,83.7301511 163.65434,92.5241408 167.301106,98.4066458 C169.471334,101.905805 172.154762,103.810945 173.859631,104.746231 C171.589372,107.876653 169.045117,110.914891 166.239912,113.837899 C166.309499,113.557505 166.374736,113.27327 166.433449,112.981354 C167.318502,108.612206 167.559881,101.245151 160.125001,93.8608118 L159.868401,93.6053847 L159.648768,93.8857784 C157.609015,98.3413486 151.789846,106.518856 153.842647,113.265588 C155.029966,117.166133 157.124084,119.641663 158.583225,120.987937 C158.174405,121.329786 157.769933,121.671636 157.356764,122.009645 C154.397164,124.416037 151.461485,126.56124 148.564948,128.489427 C148.658454,128.283933 148.754136,128.078439 148.841119,127.863342 C150.678637,123.461546 152.466139,115.831382 146.272943,106.935606 L146.05766,106.626405 L145.768441,106.885673 C142.71316,111.191444 134.947745,118.75439 135.674053,126.109922 C136.050255,129.935567 137.435461,132.679967 138.611907,134.387296 C134.345387,136.61124 130.204991,138.408832 126.227689,139.899143 C126.608241,139.524645 126.990966,139.127101 127.367168,138.696908 C130.409402,135.236159 134.445417,128.894653 131.783735,119.428487 L131.692402,119.102001 L131.355343,119.259483 C127.25409,122.328449 117.922979,127.116266 116.211586,133.845714 C115.104727,138.193736 115.915844,141.44707 116.546471,143.087181 C112.071191,144.37776 107.898177,145.361058 104.110064,146.254093 C104.07962,146.259854 104.049175,146.267536 104.018731,146.273298 C103.988287,146.267536 103.957843,146.259854 103.927399,146.254093 C100.137111,145.359137 95.964097,144.375839 91.4909914,143.087181 C92.1216188,141.44707 92.9305616,138.191815 91.8258763,133.845714 C90.114484,127.116266 80.7811981,122.328449 76.6821199,119.259483 L76.3428858,119.102001 L76.2515536,119.428487 C73.589871,128.894653 77.6237119,135.236159 80.6702947,138.696908 C81.0464966,139.127101 81.4292222,139.524645 81.8097732,139.899143 C77.8302967,138.408832 73.6899015,136.61124 69.4233808,134.387296 C70.5998271,132.679967 71.9828583,129.937487 72.3590602,126.109922 C73.085369,118.75439 65.322128,111.191444 62.2646723,106.885673 L61.9798027,106.626405 L61.7666941,106.935606 C55.5734979,115.833303 57.3610004,123.461546 59.1941691,127.863342 C59.2855014,128.078439 59.3790082,128.283933 59.472515,128.487506 C56.575978,126.56124 53.6424732,124.416037 50.6828735,122.009645 C50.2675292,121.671636 49.8608833,121.329786 49.4520627,120.987937 C50.9112041,119.643583 53.0074967,117.168053 54.1926413,113.265588 C56.2454423,106.518856 50.428448,98.3413486 48.3865199,93.8857784 L48.1668876,93.6053847 L47.9189857,93.8608118 C40.4841059,101.245151 40.7211348,108.612206 41.6083624,112.981354 C41.667076,113.27327 41.7344879,113.559426 41.8018998,113.837899 C38.996695,110.914891 36.4546141,107.876653 34.1843554,104.746231 C35.8870495,103.812866 38.5704779,101.905805 40.740706,98.4066458 C44.3896468,92.5241408 41.0625435,83.7282306 40.2992668,79.1612711 L40.1687922,78.8539904 L39.8643514,79.0402793 C31.0312183,84.4407377 29.3611429,91.3622356 29.0654004,95.6161529 C29.0414801,95.9618437 29.0284326,96.2960114 29.0219089,96.6205767 C27.1735181,93.2616145 25.6165208,89.8219911 24.370488,86.3170705 C26.3341313,85.7850908 29.1545581,84.6558342 32.0271747,82.2494422 C37.5397282,77.6325496 37.4179519,68.3603543 38.2747353,63.8049179 L38.2573387,63.4784321 L37.900708,63.5744574 C27.6193065,66.3303812 23.6333063,72.4663928 21.8784224,76.4379959 C21.8349308,76.5340211 21.8001376,76.6281258 21.7588206,76.7222305 C21.0281626,72.8812217 20.6541353,68.9922003 20.6541353,65.0762918 C20.6541353,65.0148357 20.6563099,64.9533795 20.6563099,64.8919234 C22.7091109,64.8861619 25.7469954,64.532789 29.2524141,63.002147 C36.0610156,60.0311267 39.0467103,51.1411118 41.3930792,47.0139479 L41.4844115,46.6951441 L41.1125587,46.6932236 C30.3701468,46.6432905 24.5074864,51.4675976 21.5000459,54.8015932 C21.4826493,54.8227188 21.4652527,54.8438443 21.4478561,54.8649699 C21.9567072,51.5866688 22.7134601,48.3563804 23.7028927,45.1913892 C25.6665361,45.7214484 28.8088003,46.195813 32.8469904,45.552444 C40.3231872,44.3617313 45.9792628,36.5491194 49.5238238,33.1575086 L49.7108374,32.8751944 L49.3542068,32.7830102 C39.0467103,30.1077476 31.9010492,33.3092284 27.9672389,35.7809176 C27.7019404,35.946081 27.4475149,36.1150854 27.1996131,36.2821692 C28.5261052,33.4935968 30.0461348,30.7741626 31.7553525,28.1411511 C33.4863161,29.0284241 36.2110615,30.0424504 39.9665565,30.2901955 C47.3514211,30.7780036 54.8515382,24.622787 59.1354555,22.1856669 L59.3920557,21.9590474 L59.0810911,21.7958045 C50.0913885,17.0463971 42.4586221,18.527106 38.0659759,20.0116559 C37.9746437,20.042384 37.8898352,20.0750326 37.7985029,20.1057606 C38.7618407,18.9880271 39.7599717,17.891419 40.7994196,16.8178571 C42.7826341,16.9695769 45.9792628,16.8601082 49.8043443,15.4139684 C56.6129459,12.8404925 60.0531272,4.32497592 62.5821606,0.416749456 L62.693064,0.111389256 L62.3299096,0.0921842115 C51.8745419,-0.460921057 45.8748831,3.96008009 42.7500155,7.06745621 C39.9056683,9.8925182 38.6683338,12.5581783 38.5117643,14.7110637 C37.5832198,15.6636339 36.6829447,16.6334887 35.8131138,17.6187074 C36.8895296,13.5299535 37.2613823,7.1481174 31.5031016,0.25734759 L31.2878184,0 L31.0573132,0.245824564 C28.7239918,4.24815575 22.513399,11.4346832 23.7768284,17.879896 C24.9771951,23.9967026 28.8392444,26.7334213 28.8392444,26.7334213 L28.8936088,26.7122958 C27.4736098,28.8978298 26.1819109,31.1409789 25.018512,33.4321407 C24.7988797,29.1398134 23.146201,22.9865172 15.706972,17.655197 L15.4199277,17.449703 L15.2611836,17.7493017 C14.1086576,22.2528846 10.0334997,30.7972087 13.1627165,36.9101742 C15.7417652,41.9418957 19.560323,43.9929944 20.5301844,44.448154 C19.5385772,47.6189067 18.7709514,50.8549567 18.2447037,54.1370987 C16.8616725,50.0156962 13.499776,43.9334588 4.03819008,40.3882077 L3.69678144,40.2595339 L3.63806785,40.5840991 C3.94250867,45.1933097 2.7029996,54.4002078 7.62624265,59.5087495 C12.2994093,64.3580231 17.3248575,64.9937101 17.3248575,64.9937101 L17.3705236,64.9418565 C17.3705236,64.9879486 17.368349,65.0321202 17.368349,65.0782123 C17.368349,68.9000161 17.7162814,72.6930123 18.3838766,76.4437574 C15.6395601,72.8869832 10.3988287,68.1241323 0.369678144,67.2234157 L0,67.1907671 L0.0521898556,67.5153324 C1.88535853,71.8383878 3.78158995,80.9588632 10.1944185,84.5540475 C16.0353331,87.8285075 20.8759422,87.3157328 21.2586678,87.2677202 C22.3350836,90.2848326 23.6333063,93.2558529 25.1402884,96.1711786 C21.2217,93.6245898 14.7632054,90.895553 5.39077717,92.6566556 L5.02762276,92.7238732 L5.19071605,93.0196309 C8.43301083,96.6397817 13.3975708,104.809607 20.7476422,106.499651 C25.9927227,107.705728 29.854772,106.860706 31.4487371,106.369057 C33.4819669,109.169152 35.719607,111.896269 38.1660065,114.536962 C33.5102364,112.745132 26.0623091,111.208728 16.8268793,115.126557 L16.4767723,115.276356 L16.7246741,115.539466 C21.0151152,118.498963 28.3151712,125.687411 36.2241089,125.802641 C42.2672593,125.889064 46.0445001,123.941672 47.2905329,123.181153 C47.6797822,123.503797 48.0625078,123.828363 48.4582809,124.151007 C51.1786771,126.361508 53.875153,128.358832 56.5433594,130.17563 C51.3569925,128.981076 42.9979173,128.333866 33.8581688,134.139551 L33.5276331,134.348886 L33.8407722,134.581267 C38.9227594,136.960772 48.0233655,143.254265 56.2780609,142.084677 C64.1152376,140.968864 67.6663224,137.160504 67.6663224,137.160504 L67.5662918,136.945408 C67.5358477,136.87819 67.4988799,136.814813 67.4662612,136.745675 C70.9847273,138.597041 74.4183849,140.158412 77.7498374,141.502765 C72.7896265,141.94256 65.8809944,143.782403 60.1292374,150.611717 L59.9030813,150.884429 L60.2553629,151.013102 C65.5439349,151.860045 75.657894,155.186359 82.6317634,152.080903 C87.2440419,150.025963 89.5773634,147.327654 90.5733198,145.879594 C93.0740837,146.597863 95.48569,147.223947 97.7863928,147.792417 C91.1669794,149.501665 85.8501379,151.387601 82.2446887,154.990467 L84.7063102,156.912892 C88.5988036,153.023871 95.4052306,151.314622 104.018731,149.280807 C112.632232,151.314622 119.438659,153.02195 123.331152,156.912892 L125.794949,154.990467 C122.189499,151.387601 116.870483,149.501665 110.253245,147.792417 C112.556122,147.223947 114.967728,146.597863 117.468492,145.879594 C118.460099,147.327654 120.79777,150.024043 125.407874,152.080903 C132.379569,155.186359 142.495702,151.861965 147.7821,151.013102 L148.134381,150.884429 L147.908225,150.611717 C142.154294,143.780483 135.247836,141.94064 130.285451,141.502765 C133.614729,140.160332 137.050561,138.597041 140.566852,136.747596 C140.534234,136.812893 140.497266,136.87627 140.466822,136.945408 L140.368966,137.160504 C140.368966,137.160504 143.920051,140.968864 151.755053,142.084677 C160.009748,143.252344 169.110354,136.960772 174.192341,134.581267 L174.507655,134.348886 L174.174945,134.139551 C165.039545,128.333866 156.678296,128.979155 151.491929,130.17563 C154.157961,128.360753 156.856611,126.363428 159.577007,124.151007 C159.970606,123.828363 160.353331,123.503797 160.742581,123.181153 C161.988613,123.941672 165.768029,125.889064 171.809005,125.802641 C179.717942,125.687411 187.017998,118.498963 191.308439,115.539466 L191.556341,115.276356 L191.208409,115.126557 C181.970804,111.206808 174.522877,112.747052 169.867107,114.536962 C172.315681,111.896269 174.553321,109.169152 176.586551,106.369057 C178.182691,106.862627 182.042565,107.705728 187.287646,106.499651 C194.639892,104.809607 199.602277,96.6397817 202.846747,93.0196309 L203.007665,92.7238732 L202.644511,92.6566556 C193.272083,90.895553 186.815763,93.6245898 182.897174,96.1711786 C184.401982,93.2558529 185.700204,90.2867531 186.77662,87.2677202 C187.168044,87.3138123 192.010828,87.826587 197.847393,84.5540475 Z M47.2258354,100.494774 C46.7022047,108.664528 46.5100305,113.968828 46.0833685,117.243902 C46.0251873,117.179722 45.965243,117.113655 45.9088249,117.047587 C45.7906995,114.185908 45.6337866,106.097322 47.2258354,100.494774 Z M37.9059233,85.5087108 C34.9847455,93.3131113 33.2904167,98.3731285 31.8651738,101.376307 C31.8218464,101.312574 31.7762386,101.248841 31.7351916,101.185107 C32.3189711,98.6222667 34.3576386,90.5899723 37.9059233,85.5087108 Z M33.4982578,68.7595819 C28.5126359,75.0855011 25.320184,79.3799818 23.022141,81.9825784 C22.9873221,81.8550001 22.9525033,81.7254591 22.9198606,81.5998436 C24.6999736,78.7558297 28.9522237,72.4004693 33.4982578,68.7595819 Z M35.261324,50.2473868 C28.5660404,54.8708765 24.1765744,58.0746004 21.1567944,59.9442509 C21.1675794,59.8059746 21.1740503,59.6657509 21.1848352,59.5294222 C23.8530266,57.2605235 29.8516039,52.4637016 35.261324,50.2473868 Z M42.3135889,35.261324 C34.2285365,38.2696065 28.989644,40.3873724 25.5644599,41.4320557 C25.6027777,41.3265732 25.6432243,41.2251476 25.6794133,41.1216935 C28.6107237,39.6631938 36.2061599,36.1153273 42.3135889,35.261324 Z M52.010453,22.1591952 C43.6280819,22.9539772 38.0339289,23.6066458 34.3797909,23.8013937 C34.4639468,23.701388 34.5458881,23.6013824 34.630044,23.5013767 C38.1978115,22.8644984 46.0907495,21.6521488 52.010453,22.1591952 Z M56.4181185,3.5261324 C49.4097995,7.73118037 44.807255,10.6598358 41.6632947,12.3414634 L41.4320557,12.149613 C44.077963,10.1665061 50.6504854,5.50336632 56.4181185,3.5261324 Z M31.159646,7.05226481 C32.3109282,13.150606 31.2195902,21.961043 30.9833394,23.7064704 C30.9657087,23.7374658 30.946315,23.7684611 30.9269212,23.8013937 C30.7241686,20.686358 30.9886286,15.4500758 31.159646,7.05226481 Z M17.630662,23.8013937 C20.464313,28.9132797 21.6920868,36.7414445 22.0383275,39.3671808 C21.9979682,39.4671549 21.9639814,39.5671291 21.9257462,39.6689895 C20.8487889,36.6584471 19.6974854,31.6144681 17.630662,23.8013937 Z M7.93379791,45.8397213 C12.967151,50.7248839 17.0769932,59.551814 17.630662,60.7697216 C17.6284736,60.7871202 17.6284736,60.8083853 17.6262852,60.825784 C15.5626104,58.215982 12.7526864,53.4255456 7.93379791,45.8397213 Z M6.17073171,71.4041812 C12.3054156,74.5430572 18.8355332,81.2529734 20.2359364,82.7314295 C20.2490447,82.775025 20.262153,82.820516 20.2752613,82.8641115 C17.4329452,80.9193731 13.1814869,77.1815328 6.17073171,71.4041812 Z M12.3414634,95.2055749 C18.4238089,96.4154267 25.7451917,100.162064 28.831722,101.842197 C28.9202247,101.980745 29.0043022,102.119292 29.0905923,102.25784 C25.6279257,101.010912 20.3974183,98.6263331 12.3414634,95.2055749 Z M24.6829268,116.365369 C31.5500184,116.264984 40.6220988,118.710907 43.7957788,119.637539 C43.888667,119.72248 43.9837669,119.805491 44.0766551,119.888502 C40.2483344,119.430977 34.1730041,118.131762 24.6829268,116.365369 Z M42.3135889,134.499889 C50.8105513,133.135276 63.4703833,134.958286 63.4703833,134.958286 C59.6178562,135.176907 53.0257544,134.803137 42.3135889,134.499889 Z M79.3379791,126.059233 C83.365433,133.964472 86.0760922,138.850031 87.271777,141.926829 C87.234343,141.913502 87.1969091,141.902078 87.1572731,141.88875 C86.0122343,140.230402 80.7208337,132.348011 79.3379791,126.059233 Z M62.836466,114.599303 C64.0110634,123.035824 64.9945057,128.620126 65.2334495,132.229965 C65.087568,132.154397 64.9416865,132.082704 64.7958051,132.007136 C63.8400299,128.585249 61.9033277,120.565322 62.836466,114.599303 Z M67.8780488,148.097561 C73.1657273,145.653143 81.0722725,144.257382 84.9028536,143.689895 C85.1026345,143.75601 85.3089299,143.822125 85.5087108,143.884567 C81.9169982,144.907513 76.2579878,146.110438 67.8780488,148.097561 Z M165.728223,134.500938 C155.015001,134.805948 148.423566,135.179718 144.571429,134.959335 C144.573569,134.957572 157.23212,133.134561 165.728223,134.500938 Z M146.086436,114.599303 C147.020382,120.565978 145.084521,128.586786 144.127919,132.007111 C143.979394,132.082688 143.833386,132.154389 143.689895,132.229965 C143.926529,128.621667 144.910822,123.034813 146.086436,114.599303 Z M128.703833,126.059233 C127.320978,132.349915 122.03178,140.230402 120.884539,141.88875 C120.844903,141.902078 120.807469,141.913502 120.770035,141.926829 C121.96572,138.848127 124.674177,133.964472 128.703833,126.059233 Z M140.163763,148.097561 C131.784964,146.110438 126.123084,144.907513 122.533101,143.884567 C122.732907,143.822125 122.939227,143.75601 123.136861,143.689895 C126.967914,144.259219 134.877605,145.653143 140.163763,148.097561 Z M201.87108,71.4041812 C194.859239,77.1815328 190.607122,80.9193731 187.766551,82.8641115 C187.777476,82.820516 187.790586,82.775025 187.805882,82.7314295 C189.202132,81.2567643 195.735446,74.5430572 201.87108,71.4041812 Z M200.108014,45.8397213 C195.288038,53.4274788 192.479668,58.2179152 190.413339,60.825784 C190.413339,60.8064521 190.41115,60.7871202 190.41115,60.7697216 C190.962755,59.551814 195.075714,50.7248839 200.108014,45.8397213 Z M190.41115,23.8013937 C188.341076,31.6144681 187.190327,36.6584471 186.118135,39.6689895 C186.077795,39.5690154 186.043824,39.4671549 186.003484,39.3671808 C186.349558,36.7376719 187.574617,28.9132797 190.41115,23.8013937 Z M175.943168,7.05226481 C176.115948,15.4500758 176.378645,20.686358 176.175893,23.8013937 C176.156499,23.7684611 176.138868,23.7374658 176.119475,23.7064704 C175.881461,21.9571686 174.793649,13.150606 175.943168,7.05226481 Z M151.623693,3.5261324 C157.391326,5.50292732 163.963849,10.166989 166.609756,12.1476984 L166.378517,12.3414634 C163.23678,10.6562947 158.634236,7.73024675 151.623693,3.5261324 Z M156.031359,22.1591952 C161.953277,21.6521488 169.841786,22.8644984 173.413982,23.5013767 C173.498138,23.6013824 173.577865,23.7031425 173.662021,23.8013937 C170.007883,23.6066458 164.41373,22.9539772 156.031359,22.1591952 Z M165.728223,35.261324 C171.837781,36.1153273 179.431088,39.6611653 182.36027,41.1216935 C182.400716,41.2251476 182.439034,41.3265732 182.477352,41.4320557 C179.054297,40.3873724 173.815404,38.271635 165.728223,35.261324 Z M172.780488,50.2473868 C178.189705,52.4637016 184.190118,57.2605235 186.856968,59.5274746 C186.869914,59.6657509 186.876387,59.8059746 186.885017,59.9442509 C183.868629,58.0746004 179.475662,54.8689289 172.780488,50.2473868 Z M174.543554,68.7595819 C179.089282,72.3985066 183.343283,78.7558297 185.121951,81.5978809 C185.087118,81.7254591 185.054462,81.8550001 185.021806,81.9825784 C182.722817,79.3799818 179.529051,75.0855011 174.543554,68.7595819 Z M171.017422,85.5087108 C174.563426,90.5899723 176.602093,98.6203354 177.188153,101.185107 C177.144826,101.246909 177.101499,101.308711 177.055891,101.376307 C175.630648,98.3711972 173.936319,93.3131113 171.017422,85.5087108 Z M161.756035,117.049474 C161.699617,117.113655 161.639672,117.177835 161.579728,117.243902 C161.156592,113.968828 160.960892,108.666415 160.439024,100.494774 C162.031073,106.095435 161.872397,114.18402 161.756035,117.049474 Z M184.240418,116.365369 C174.748129,118.131762 168.677222,119.430977 164.84669,119.888502 C164.939578,119.805491 165.034678,119.72055 165.127566,119.637539 C168.305669,118.710907 177.373327,116.264984 184.240418,116.365369 Z M195.700348,95.2055749 C187.643329,98.6263331 182.412131,101.010912 178.95122,102.25784 C179.037521,102.119292 179.12161,101.980745 179.210124,101.842197 C182.294849,100.162064 189.617199,96.4154267 195.700348,95.2055749 Z" id="Shape" fill-rule="nonzero"></path>
                        <path d="M69.8699059,55.9371916 L79.5259059,55.9371916 L79.5259059,32.6491916 L71.0059059,32.6491916 L71.0059059,25.1231916 C73.5145851,24.6498559 75.6682303,24.0700284 77.4669059,23.3836916 C79.2655816,22.6973549 81.0405638,21.8098637 82.7919059,20.7211916 L91.7379059,20.7211916 L91.7379059,55.9371916 L99.8319059,55.9371916 L99.8319059,65.7351916 L69.8699059,65.7351916 L69.8699059,55.9371916 Z M121.486906,66.5871916 C118.126222,66.5871916 115.191585,65.6878673 112.682906,63.8891916 C110.174227,62.090516 108.221746,59.4162094 106.825406,55.8661916 C105.429066,52.3161739 104.730906,48.0325501 104.730906,43.0151916 C104.730906,35.489154 106.245557,29.7500447 109.274906,25.7976916 C112.304254,21.8453385 116.37488,19.8691916 121.486906,19.8691916 C124.847589,19.8691916 127.782227,20.7448495 130.290906,22.4961916 C132.799585,24.2475337 134.752066,26.850841 136.148406,30.3061916 C137.544746,33.7615422 138.242906,37.9978332 138.242906,43.0151916 C138.242906,48.0325501 137.544746,52.3161739 136.148406,55.8661916 C134.752066,59.4162094 132.799585,62.090516 130.290906,63.8891916 C127.782227,65.6878673 124.847589,66.5871916 121.486906,66.5871916 Z M121.486906,57.2151916 C123.143581,57.2151916 124.433401,56.2212016 125.356406,54.2331916 C126.279411,52.2451817 126.740906,48.5058858 126.740906,43.0151916 C126.740906,39.228506 126.516075,36.3293684 126.066406,34.3176916 C125.616737,32.3060149 125.013243,30.9570284 124.255906,30.2706916 C123.498569,29.5843549 122.575578,29.2411916 121.486906,29.2411916 C120.398234,29.2411916 119.475243,29.5843549 118.717906,30.2706916 C117.960569,30.9570284 117.357075,32.3060149 116.907406,34.3176916 C116.457737,36.3293684 116.232906,39.228506 116.232906,43.0151916 C116.232906,48.5058858 116.694401,52.2451817 117.617406,54.2331916 C118.540411,56.2212016 119.830231,57.2151916 121.486906,57.2151916 Z M84.9409059,94.7671916 L78.3889059,94.7671916 L77.2369059,99.7351916 L70.9009059,99.7351916 L78.0289059,76.3351916 L85.5169059,76.3351916 L92.6449059,99.7351916 L86.0929059,99.7351916 L84.9409059,94.7671916 Z M83.8249059,89.9791916 L83.4289059,88.3591916 C83.1169044,87.1351855 82.8049075,85.791199 82.4929059,84.3271916 L81.7009059,80.9431916 L81.5569059,80.9431916 L81.3409059,81.9511916 C80.8129033,84.5912048 80.3329081,86.7271835 79.9009059,88.3591916 L79.5049059,89.9791916 L83.8249059,89.9791916 Z M94.8769059,76.3351916 L101.212906,76.3351916 L106.396906,86.7751916 L108.628906,92.0311916 L108.772906,92.0311916 C108.748906,91.7671903 108.688906,91.2871951 108.592906,90.5911916 C108.184904,87.2791751 107.980906,84.7832 107.980906,83.1031916 L107.980906,76.3351916 L113.884906,76.3351916 L113.884906,99.7351916 L107.548906,99.7351916 L102.364906,89.2591916 L100.132906,84.0391916 L99.9889059,84.0391916 L100.204906,85.9471916 C100.588908,88.9712068 100.780906,91.3111834 100.780906,92.9671916 L100.780906,99.7351916 L94.8769059,99.7351916 L94.8769059,76.3351916 Z M126.484906,100.167192 C124.948898,100.167192 123.394914,99.8851945 121.822906,99.3211916 C120.250898,98.7571888 118.852912,97.9231972 117.628906,96.8191916 L121.156906,92.5711916 C121.99691,93.243195 122.908901,93.7891895 123.892906,94.2091916 C124.876911,94.6291937 125.788902,94.8391916 126.628906,94.8391916 C128.404915,94.8391916 129.292906,94.2871972 129.292906,93.1831916 C129.292906,92.8231898 129.172907,92.5291928 128.932906,92.3011916 C128.692905,92.0731905 128.320908,91.8451928 127.816906,91.6171916 C127.312903,91.3891905 126.748909,91.1551928 126.124906,90.9151916 L123.208906,89.6911916 C121.816899,89.1391889 120.68291,88.3111972 119.806906,87.2071916 C118.930902,86.1031861 118.492906,84.7591996 118.492906,83.1751916 C118.492906,81.855185 118.864902,80.6371972 119.608906,79.5211916 C120.35291,78.4051861 121.390899,77.5231949 122.722906,76.8751916 C124.054913,76.2271884 125.548898,75.9031916 127.204906,75.9031916 C128.596913,75.9031916 129.982899,76.167189 131.362906,76.6951916 C132.742913,77.2231943 133.948901,78.0031865 134.980906,79.0351916 L131.884906,82.9231916 C131.068902,82.3471888 130.29491,81.921193 129.562906,81.6451916 C128.830902,81.3691903 128.04491,81.2311916 127.204906,81.2311916 C126.436902,81.2311916 125.836908,81.3691903 125.404906,81.6451916 C124.972904,81.921193 124.756906,82.3111891 124.756906,82.8151916 C124.756906,83.1751934 124.888905,83.4751904 125.152906,83.7151916 C125.416907,83.9551928 125.824903,84.1951904 126.376906,84.4351916 C126.928909,84.6751928 127.540903,84.9151904 128.212906,85.1551916 L131.056906,86.2711916 C134.104921,87.4711976 135.628906,89.6071763 135.628906,92.6791916 C135.628906,94.0231984 135.26291,95.2651859 134.530906,96.4051916 C133.798902,97.5451973 132.742913,98.4571882 131.362906,99.1411916 C129.982899,99.8251951 128.356915,100.167192 126.484906,100.167192 Z" id="10-ANS"></path>
                    </g>
                </g>
            </g>
        </g>
    </g>
</svg>