<?xml version="1.0" encoding="UTF-8"?>
<svg width="253px" height="253px" viewBox="0 0 253 253" version="1.1" xmlns="http://www.w3.org/2000/svg" xmlns:xlink="http://www.w3.org/1999/xlink">
    <!-- Generator: Sketch 51.1 (57501) - http://www.bohemiancoding.com/sketch -->
    <title>Cheaper_Icon</title>
    <desc>Created with Sketch.</desc>
    <defs>
        <linearGradient x1="0%" y1="0%" x2="100%" y2="100%" id="linearGradient-1">
            <stop stop-color="#F5A623" offset="0%"></stop>
            <stop stop-color="#F7771C" offset="100%"></stop>
        </linearGradient>
    </defs>
    <g id="Page-1" stroke="none" stroke-width="1" fill="none" fill-rule="evenodd">
        <g id="Desktop-HD-Copy-14" transform="translate(-1034.000000, -2043.000000)" fill="url(#linearGradient-1)">
            <g id="Group-17" transform="translate(-3.000000, 1752.000000)">
                <g id="Cheaper_Icon" transform="translate(1037.000000, 291.000000)">
                    <path d="M126.339886,252.899041 C56.7192933,252.899041 0.280652098,196.4604 0.280652098,126.839808 C0.280652098,57.2192157 56.7192933,0.78057449 126.339886,0.78057449 C195.960478,0.78057449 252.399119,57.2192157 252.399119,126.839808 C252.399119,196.4604 195.960478,252.899041 126.339886,252.899041 Z M177.635208,131.732035 C178.024672,131.790413 178.19163,131.851974 178.37496,131.97512 C178.537992,132.084632 178.726999,132.243003 178.897803,132.488771 C179.214764,132.944845 179.467183,133.486278 179.612204,134.02491 C179.816545,134.783864 179.832753,135.630304 179.832753,135.955113 C179.832753,136.256465 179.477199,137.8571 179.2084,138.267656 C179.053724,138.503904 178.860924,139.050557 178.45855,139.442091 C178.288911,139.60716 177.945311,139.829882 177.427752,140.110256 C177.317169,140.137042 177.242139,140.1523 177.202663,140.156031 C177.018077,140.173475 176.925592,140.155937 176.870209,140.156031 C176.811871,140.156129 176.617416,140.150861 176.466784,140.110256 C176.31085,140.068222 176.070056,139.931791 176.011484,139.906077 C175.627444,139.737477 175.420508,139.369138 175.299759,139.140631 C175.280574,139.104324 174.86944,138.607238 174.71589,137.977802 C174.629447,137.623454 174.552689,137.225656 174.526134,136.866534 C174.494056,136.432733 174.575613,135.4737 174.627524,135.19806 C174.658356,135.034348 174.866446,134.094293 175.034613,133.785793 C175.120201,133.628784 175.1925,133.382551 175.392745,133.097438 C175.52482,132.909386 175.827381,132.575685 176.300427,132.096334 C176.699743,131.77994 177.14467,131.658507 177.635208,131.732035 Z M69.3612402,143.335941 C69.4203992,147.241031 69.8047446,150.014566 70.5142764,151.656547 C70.9959947,152.771328 71.5728192,155.494921 73.826973,158.974528 C74.5376605,160.071576 75.9895658,161.907914 78.182689,164.483542 C80.1377843,167.376695 81.5480924,169.539551 82.4136135,170.972111 C82.9582261,171.873522 84.4804385,174.186454 86.7459433,178.071913 C87.6358965,179.59823 89.1373909,182.535739 91.2504266,186.884442 L104.304702,186.884442 L105.190821,179.895348 C113.239775,181.790346 119.546094,182.810926 124.109779,182.95709 C127.074047,183.052028 131.486933,183.219061 137.35627,182.56235 C139.467532,182.326124 143.058607,181.713065 148.129497,180.723172 L149.029043,186.884442 L162.043792,186.884442 C162.513555,185.345046 162.837922,184.270241 163.016895,183.660027 C163.748697,181.164912 164.346143,179.730651 164.547768,179.189021 C165.137111,177.605856 166.135134,175.576839 167.541837,173.101969 C171.461381,170.712735 174.251048,168.773486 175.910839,167.284222 C177.57063,165.794958 179.483456,163.650121 181.649317,160.849711 C182.746605,161.136052 183.528436,161.301177 183.99481,161.345085 C185.519597,161.488641 186.647121,161.261796 187.355405,161.01128 C190.27309,159.979311 192.078723,156.961788 192.483056,156.182737 C192.907283,155.365355 193.508986,154.008434 193.964196,152.094417 C194.121447,151.433228 194.307487,150.291296 194.522317,148.668622 C194.72761,146.298442 194.822979,144.642695 194.808422,143.701383 C194.758576,140.478139 194.208931,138.93706 193.543537,137.959269 C192.970947,137.117851 191.685485,136.321211 190.199511,136.315338 C189.534653,136.312711 188.319317,136.641724 186.553502,137.302379 C185.870723,135.185347 185.340445,133.696433 184.962667,132.835637 C183.58067,129.686649 182.135671,127.512682 180.939964,125.904653 C180.754936,125.655821 179.275894,123.6805 175.910839,120.694641 C174.951719,119.843601 173.12374,118.436221 170.426902,116.4725 C171.512911,114.402889 172.269869,112.972875 172.697777,112.182458 C173.085214,111.466797 173.540355,110.59713 173.963174,109.806947 C174.261058,109.250248 174.576629,108.716867 174.694135,108.374922 C174.875463,107.847257 175.051678,107.585327 175.431999,106.727128 C175.787414,105.925129 176.006876,105.073237 176.148198,104.263035 C176.264864,103.594188 176.185745,103.000022 175.910839,102.480538 C175.739328,102.259812 175.579714,102.106314 175.431999,102.020045 C175.102472,101.827594 174.556217,101.680017 174.399815,101.641386 C174.051629,101.555384 172.956648,101.450047 172.697777,101.444028 C172.478107,101.438922 171.942708,101.387915 171.449332,101.388268 C170.789766,101.388739 170.161346,101.441952 170.040286,101.444028 C169.50229,101.453258 169.007221,101.511189 168.647473,101.556233 C168.286382,101.601444 168.060869,101.633932 167.657997,101.732069 C166.725226,101.959285 163.984061,102.246438 161.112989,103.531162 C160.517469,103.79764 159.312966,104.258821 158.380728,104.785673 C157.837876,105.092464 156.947351,105.532645 155.898978,106.308007 C155.411139,106.668806 154.587876,107.357777 153.429187,108.374922 C147.662499,106.887781 143.538087,105.968903 141.05595,105.618288 C133.178031,104.505489 127.719716,104.759445 127.213376,104.785673 C126.019686,104.847504 122.056984,104.853783 118.436856,105.260454 C116.794553,105.444944 113.734641,105.862125 110.380849,106.609938 C106.766883,107.415764 102.484023,108.831726 99.4754055,109.806947 C97.586321,110.419279 95.9304284,111.257553 93.9272636,112.182458 C92.8258235,112.691017 92.2712877,112.844452 91.144104,113.486707 C90.9084278,113.620992 90.4925558,113.849293 90.0928745,114.065481 C89.8842874,114.178306 81.7834376,118.797106 77.7561232,123.941083 C76.6808202,125.314537 74.5895969,127.280779 73.0773541,130.125883 C72.4359496,131.332609 71.4658656,133.159902 70.5142764,135.9066 C70.3150934,136.481528 70.0588924,137.469632 69.7456732,138.870911 C68.8917351,138.659529 68.3440771,138.493007 68.102699,138.371343 C67.9160302,138.277255 66.095937,137.149382 65.4013198,135.752212 C65.2908765,135.530064 64.5482476,134.547812 64.8716781,132.766736 C64.9081841,132.565704 64.9880235,132.279791 65.2327176,131.909829 C65.3151342,131.785221 65.4855826,131.576887 65.7440629,131.284828 L65.7440629,132.009766 C65.5889259,133.147761 65.3148486,133.937221 64.9218309,134.378144 C64.6589923,134.67302 63.4840159,136.497574 61.6388302,138.134253 C61.0295732,138.674663 59.9817672,139.625084 58.4954121,140.985515 C58.1275476,141.514103 57.9223692,141.900715 57.8798769,142.145351 C57.7279651,143.019932 58.082254,143.688623 58.2773932,143.940512 C58.4603038,144.176617 58.9710008,144.672612 59.7550051,144.743935 C59.9450019,144.761219 60.2457723,144.85013 60.6403761,144.743935 C60.749632,144.714532 60.9283381,144.615323 61.1764946,144.446309 L64.6065385,141.273095 C65.3477911,140.483156 65.8831197,139.919901 66.2125242,139.583328 C66.9961812,138.782618 67.6921072,138.14496 68.102699,137.470272 C68.3499757,137.063945 68.8021134,136.500015 69.1497062,135.752212 C69.4379578,135.132074 70.004944,133.797184 70.1502297,131.732935 C70.1863181,131.220184 70.1137878,130.348384 69.9326388,129.117534 C69.6992118,128.471181 69.5087456,128.031668 69.3612402,127.798995 C69.0463103,127.302229 68.6201163,127.001489 68.3837596,126.818735 C67.3577717,126.025432 65.7133602,126.260394 65.4013198,126.407625 C65.0324047,126.581691 64.5226738,126.695108 63.7866974,127.218057 C63.3370275,127.53757 60.9646792,129.170456 60.4640403,132.424101 C60.3639521,133.074572 60.2935039,134.108419 60.6403761,135.479757 C60.7713712,135.997637 61.1041892,136.882469 61.6388302,138.134253 C62.9328044,139.77596 64.0802442,140.926612 65.0811496,141.58621 C66.082055,142.245808 67.5087519,142.829052 69.3612402,143.335941 Z M123.447178,100.209408 C135.112045,100.209408 144.568287,90.802315 144.568287,79.1980774 C144.568287,67.5938397 135.112045,58.1867464 123.447178,58.1867464 C111.782311,58.1867464 102.326068,67.5938397 102.326068,79.1980774 C102.326068,90.802315 111.782311,100.209408 123.447178,100.209408 Z M123.695286,94.93967 C114.931855,94.93967 107.82769,87.8724298 107.82769,79.1545473 C107.82769,70.4366648 114.931855,63.3694247 123.695286,63.3694247 C132.458717,63.3694247 139.562882,70.4366648 139.562882,79.1545473 C139.562882,87.8724298 132.458717,94.93967 123.695286,94.93967 Z M128.126596,72.7035963 C128.087723,72.5754191 127.98125,72.4894503 127.807177,72.44569 C127.123922,72.2739258 126.182485,72.0821123 124.982865,71.8702495 L124.982865,70.0368009 L122.825704,70.0368009 L122.825704,72.0878264 C122.262162,72.2171252 121.884468,72.3195939 121.692624,72.3952325 C121.500779,72.470871 121.20241,72.6349534 120.797518,72.8874796 C120.003793,73.5712838 119.52073,74.1697789 119.348328,74.6829649 C119.243053,74.996337 119.11341,75.4219887 119.136705,75.9652916 C119.146608,76.1962405 119.245926,76.6340535 119.434661,77.2787306 C119.535883,77.4878028 119.627698,77.6528753 119.710105,77.7739479 C119.966041,78.1499647 120.240215,78.4020671 120.401704,78.5558668 C120.45068,78.6025105 120.62136,78.7255931 120.797518,78.8503074 C121.009533,79.0004082 121.258231,79.165397 121.692624,79.3680581 C122.096235,79.5563581 122.91434,79.885687 124.146939,80.3560447 C124.702051,80.6617335 125.042343,80.9157386 125.167817,81.11806 C125.25636,81.2608322 125.496341,81.7054076 125.383181,82.0577908 C125.255804,82.4544467 124.761762,82.7572704 124.649276,82.8218884 C124.408907,82.9599696 124.158034,83.0365511 124.018572,83.0679369 C123.861622,83.1032586 123.306664,83.1886763 122.608971,83.1228711 C122.056332,83.0707471 121.338465,82.8760674 121.190318,82.8218884 C120.924659,82.724734 120.431255,82.5078477 119.710105,82.1712293 L119.06188,84.6264136 C119.706703,84.9830759 120.237813,85.2153703 120.655211,85.3232969 C121.072608,85.4312235 121.746896,85.5106095 122.678076,85.5614549 L122.678076,87.6638139 L124.857851,87.6638139 L124.857851,85.4289049 C125.297672,85.3567009 125.604912,85.2902259 125.77957,85.2294799 C126.506169,84.9767693 126.94141,84.6831408 127.157819,84.5386778 C127.452257,84.3421262 127.814356,83.9330354 128.244116,83.3114053 C128.455301,82.8497962 128.585519,82.5248117 128.634772,82.3364518 C128.753239,81.8833932 128.703055,81.5252801 128.706349,81.2584705 C128.710532,80.9196344 128.670928,80.1753823 128.164399,79.4876171 C128.033293,79.3096015 127.872532,79.0310826 127.549802,78.7491414 C127.438422,78.6518381 126.848603,78.2038958 126.150732,77.8737354 C125.191032,77.4197042 123.926176,76.9854812 123.744637,76.9036723 C123.535604,76.8094734 123.272803,76.6540417 122.956234,76.4373772 C122.729227,76.1569478 122.590387,75.9657233 122.539714,75.8637036 C122.482117,75.7477461 122.4745,75.6337107 122.46905,75.5591095 C122.466608,75.5256709 122.491212,75.3578527 122.561507,75.1888869 C122.617737,75.0537308 122.721582,74.9171571 122.792263,74.8386618 C122.875064,74.7467066 123.041007,74.6407517 123.214545,74.5653024 C123.374337,74.4958295 123.575805,74.45458 123.65107,74.4430077 C123.852892,74.411977 124.237366,74.3764767 124.473093,74.379886 C124.770456,74.3841868 125.12012,74.4081332 125.26854,74.4176363 C125.757203,74.448925 126.496678,74.6829641 127.486964,75.1197536 L128.126596,72.7035963 Z M103.139373,115.586771 C105.694547,114.686219 107.497014,114.082702 108.546773,113.77622 C110.580014,113.182605 112.280782,112.881174 113.435732,112.635851 C118.733954,111.510457 122.971022,111.372247 125.671003,111.218367 C129.937547,110.975204 136.411345,111.63433 145.092395,113.195744 L143.957465,117.618326 C140.182248,116.865703 137.425688,116.390832 135.687784,116.193714 C130.562382,115.612374 126.155784,115.649482 123.439056,115.790391 C120.75831,115.929434 117.007445,116.313972 112.514305,117.371906 C110.930132,117.744908 108.355054,118.504233 104.789069,119.649881 L103.139373,115.586771 Z" id="Polygone_Cheaper"></path>
                </g>
            </g>
        </g>
    </g>
</svg>