<?xml version="1.0" encoding="UTF-8"?>
<svg width="283px" height="325px" viewBox="0 0 283 325" version="1.1" xmlns="http://www.w3.org/2000/svg" xmlns:xlink="http://www.w3.org/1999/xlink">
    <!-- Generator: Sketch 47.1 (45422) - http://www.bohemiancoding.com/sketch -->
    <title>Group 2</title>
    <desc>Created with Sketch.</desc>
    <defs>
        <path d="M137.265026,0 L274.530053,79.25 L274.530053,237.75 L137.265026,317 L6.75015599e-14,237.75 L-2.13162821e-14,79.25 L137.265026,0 Z M105.600469,106.962707 C115.639478,106.213238 122.48135,106.063679 126.126086,106.514029 C137.800296,107.956515 143.562772,111.723359 144.786263,112.283583 C154.189373,116.589172 161.165366,121.95663 165.468794,127.255435 C167.360967,129.585266 171.890414,134.99397 175.126662,141.122597 C176.684988,144.073667 178.869447,148.268488 180.342664,153.207134 C182.863349,161.657197 183.93286,171.59879 183.67425,176.096769 C183.549571,178.265282 183.639488,181.432641 183.007927,185.480449 C182.645114,187.805793 181.756693,191.971799 180.342664,197.978465 C186.104579,189.688476 189.784134,184.214119 191.381329,181.555395 C194.44686,176.452448 197.524674,168.439265 198.672006,163.775359 C199.088697,162.081507 199.587201,159.046924 200.167517,154.671611 C198.726784,156.347313 197.662703,157.395883 196.975274,157.817321 C195.670375,158.617308 194.51044,159.38982 193.477233,159.696836 C191.809554,160.192385 190.446189,160.162255 189.629215,160.096312 C188.417799,159.998531 186.390538,159.31924 184.556737,157.091376 C184.385711,156.883599 183.92745,156.086152 183.552375,155.180004 C183.278302,154.51787 183.048645,153.797695 183.007927,153.207134 C182.957975,152.482627 182.889515,151.488522 183.007927,150.663633 C183.097762,150.037823 183.274484,149.437326 183.574391,148.867601 C183.983676,148.090095 184.622385,147.369901 185.582775,146.720895 C185.746723,146.610103 187.199016,145.896301 188.828783,145.496244 C190.376493,145.116329 192.086558,145.054676 192.920536,144.760655 C193.977361,144.38807 199.091374,143.503094 201.785803,141.122597 C204.521331,138.705789 206.830687,135.261329 207.465779,134.30484 C209.711151,130.923168 210.233513,127.598987 210.979519,125.157016 C212.144363,121.344024 212.364365,115.569566 211.639525,107.833643 C207.803207,112.029586 205.051388,114.903484 203.384066,116.455338 C199.666524,119.915427 196.015784,122.193475 194.448041,123.102803 C191.825598,124.623883 188.351221,124.814988 184.024911,123.676118 C188.354859,120.605532 191.320068,118.363122 192.920536,116.948888 C197.179496,113.185511 199.683196,109.826724 201.302691,107.833643 C203.560279,105.055273 208.118696,98.2519339 209.583489,88.4748168 C210.085281,85.1254873 210.085281,79.3527022 209.583489,71.1564615 C205.867,75.8789728 203.106733,79.0791515 201.302691,80.7569977 C197.097213,84.6682928 193.14846,86.980505 189.877479,88.4748168 C186.592201,89.9756594 181.685581,92.1937033 175.858138,92.8856045 C173.386096,93.1791137 169.21737,93.0288757 163.351959,92.4348904 C163.02898,97.032847 162.238309,100.143654 160.979947,101.767313 C160.507704,102.376646 159.603861,103.903869 158.433012,104.885139 C157.63299,105.555624 156.996107,106.155691 156.053461,106.514029 C155.861853,106.586867 155.000603,107.166051 153.981801,107.534658 C153.426573,107.735543 152.824551,107.873885 152.258624,107.833643 C151.61516,107.787888 150.978713,107.461791 150.42963,107.068314 C149.551886,106.439316 148.897393,105.638135 148.79437,105.53471 C148.436296,105.175242 148.238254,104.536501 148.132949,103.86299 C148.01136,103.085326 148.013408,102.261307 148.035502,101.767313 C148.114106,100.009873 149.764339,96.8990657 152.986202,92.4348904 C142.893865,93.1626816 135.178345,94.3404219 129.839642,95.9681112 C127.178658,96.7794044 123.623792,97.6853821 119.688816,99.4491856 C117.048998,100.632451 112.352883,103.136958 105.600469,106.962707 Z M117.986692,232.82608 C148.484776,232.82608 173.208358,207.045352 173.208358,175.243212 C173.208358,143.441072 148.484776,117.660344 117.986692,117.660344 C87.4886084,117.660344 62.7650265,143.441072 62.7650265,175.243212 C62.7650265,207.045352 87.4886084,232.82608 117.986692,232.82608 Z" id="path-1"></path>
        <filter x="-2.5%" y="-1.6%" width="105.1%" height="104.4%" filterUnits="objectBoundingBox" id="filter-2">
            <feOffset dx="0" dy="2" in="SourceAlpha" result="shadowOffsetOuter1"></feOffset>
            <feGaussianBlur stdDeviation="2" in="shadowOffsetOuter1" result="shadowBlurOuter1"></feGaussianBlur>
            <feColorMatrix values="0 0 0 0 0   0 0 0 0 0   0 0 0 0 0  0 0 0 0.5 0" type="matrix" in="shadowBlurOuter1"></feColorMatrix>
        </filter>
    </defs>
    <g id="Website" stroke="none" stroke-width="1" fill="none" fill-rule="evenodd">
        <g id="Home" transform="translate(-140.000000, -2027.000000)">
            <g id="INFORMATION" transform="translate(3.000000, 2029.000000)">
                <g id="Quicker_Icon" transform="translate(135.000000, 0.000000)">
                    <g id="Group-2" transform="translate(6.000000, 0.000000)">
                        <g id="Watch_Hands" transform="translate(85.000000, 149.000000)" fill="#FFFFFF">
                            <ellipse id="Oval-2" cx="34.0375237" cy="28.4803642" rx="8.20018325" ry="8.55081178"></ellipse>
                            <path d="M26.6094791,25.7207807 L0.962487527,5.00515422 C0.87051396,3.51130065 1.06803137,2.43665265 1.55503975,1.78121022 C2.04204813,1.12576779 2.9431764,0.721798555 4.25842455,0.569302509 L29.8409455,21.5001412 L26.6094791,25.7207807 Z" id="Path-2"></path>
                            <path d="M53.355541,34.7335061 L27.7085494,14.0178796 C27.6165759,12.5240261 27.8140933,11.4493781 28.3011016,10.7939356 C28.78811,10.1384932 29.6892383,9.73452396 31.0044864,9.58202791 L56.5870074,30.5128666 L53.355541,34.7335061 Z" id="Path-2-Copy" transform="translate(42.136821, 22.157767) rotate(107.000000) translate(-42.136821, -22.157767) "></path>
                        </g>
                        <g id="Polygone_Quicker">
                            <use fill="black" fill-opacity="1" filter="url(#filter-2)" xlink:href="#path-1"></use>
                            <use fill="#FFFFFF" fill-rule="evenodd" xlink:href="#path-1"></use>
                        </g>
                    </g>
                </g>
            </g>
        </g>
    </g>
</svg>