<?xml version="1.0" encoding="UTF-8"?>
<svg width="257px" height="295px" viewBox="0 0 257 295" version="1.1" xmlns="http://www.w3.org/2000/svg" xmlns:xlink="http://www.w3.org/1999/xlink">
    <!-- Generator: Sketch 49.1 (51147) - http://www.bohemiancoding.com/sketch -->
    <title>Safer_Icon</title>
    <desc>Created with Sketch.</desc>
    <defs>
        <path d="M124.5,0 L249,71.75 L249,215.25 L124.5,287 L3.19744231e-14,215.25 L-4.97379915e-14,71.75 L124.5,0 Z M115.134306,78.1068818 C112.673081,79.781001 109.975299,82.2956993 103.883692,85.4112687 C100.704313,87.0373713 95.8519293,88.8359293 93.6172665,89.2773034 C86.1590929,90.7503867 84.7679149,90.559658 78.3229484,90.559658 C71.8779819,90.559658 69.4700535,92.6835635 68.8834416,93.2910995 C67.8514208,94.3599319 67.3132612,95.7385741 67.1263482,96.6181044 C66.8331918,97.9975693 66.8331918,99.9740736 67.1263482,102.547617 L70.1391563,155.77048 C70.5647803,158.739956 70.8931131,160.724087 71.1241545,161.722875 C71.9503046,165.294304 73.1242777,168.141978 74.1838433,170.289938 C75.0597604,172.065604 76.0351644,174.384367 77.9249275,177.08847 C78.8283687,178.381224 80.5800237,180.532782 83.1798925,183.543146 C85.9743247,186.012087 87.9637589,187.732553 89.1481952,188.704542 C92.1471215,191.165566 93.9510137,192.452852 95.6294216,193.739448 C99.2368205,196.504724 103.798188,199.283856 106.263365,201.163405 C111.468241,205.13181 117.503911,209.58287 124.370375,214.516586 L160.46239,188.704542 C163.420377,186.33564 165.314775,184.730733 166.145585,183.889822 C167.068654,182.95553 168.6731,181.025095 170.287444,178.874653 C172.29521,176.200138 174.318285,173.185317 175.064901,171.323292 C175.696291,169.748634 176.913315,167.061297 177.847708,163.280732 C178.157122,162.028838 178.513911,159.882119 178.918074,156.840574 L182.153224,98.6482916 C182.021874,96.0494015 181.596253,94.3651182 180.876364,93.5954418 C180.533324,93.2286779 180.114094,92.6884988 179.729391,92.4176479 C177.471624,90.8280587 174.551086,90.9848146 173.884485,90.9524984 C171.664134,90.844858 168.090359,90.6542117 165.862567,90.559658 C163.812564,90.4726502 161.05137,90.3163227 159.223914,90.1168637 C156.962655,89.8700572 154.445929,89.0665682 152.737337,88.5394395 C149.182022,87.4425662 146.506035,86.0975664 143.90985,84.6044876 C141.73263,83.3523579 138.953872,81.5042294 135.573575,79.0601022 L135.105071,78.6990394 C129.275653,74.2065031 121.219667,73.9676333 115.134306,78.1068818 Z" id="path-1"></path>
        <filter x="-2.8%" y="-1.7%" width="105.6%" height="104.9%" filterUnits="objectBoundingBox" id="filter-2">
            <feOffset dx="0" dy="2" in="SourceAlpha" result="shadowOffsetOuter1"></feOffset>
            <feGaussianBlur stdDeviation="2" in="shadowOffsetOuter1" result="shadowBlurOuter1"></feGaussianBlur>
            <feColorMatrix values="0 0 0 0 0   0 0 0 0 0   0 0 0 0 0  0 0 0 0.5 0" type="matrix" in="shadowBlurOuter1"></feColorMatrix>
        </filter>
    </defs>
    <g id="Page-1" stroke="none" stroke-width="1" fill="none" fill-rule="evenodd">
        <g id="Desktop-HD-Copy" transform="translate(-119.000000, -479.000000)">
            <g id="Safer_Icon" transform="translate(123.000000, 481.000000)">
                <path d="M125,171 C107.879173,171 94,157.120827 94,140 C94,122.879173 107.879173,109 125,109 C142.120827,109 156,122.879173 156,140 C156,157.120827 142.120827,171 125,171 Z M112.188784,142.384529 L120.358629,150.581987 C120.586664,150.777753 120.75269,150.904734 120.856706,150.962928 C121.096819,151.097264 121.352443,151.17004 121.493227,151.17004 C121.640498,151.17004 121.827933,151.109928 122.080928,150.962928 C122.178269,150.906369 122.335364,150.779389 122.552213,150.581987 L138.036195,131.310032 C138.245631,131.014937 138.373847,130.80934 138.420842,130.693241 C138.562654,130.342899 138.57647,130.073598 138.563228,129.938918 C138.51041,129.401709 138.223354,129.036727 138.036195,128.855989 C137.903733,128.728071 137.356824,128.464768 136.910946,128.429238 C136.798046,128.420242 136.460368,128.42384 135.992344,128.62632 C135.844048,128.690477 135.648048,128.858064 135.404344,129.129081 L122.032289,145.764469 C121.739243,146.049779 121.519576,146.192434 121.373288,146.192434 C121.226999,146.192434 121.009225,146.049779 120.719965,145.764469 L115.054747,139.956516 C114.827762,139.755371 114.668907,139.628299 114.57818,139.5753 C114.178234,139.341668 113.922054,139.320983 113.753373,139.302553 C112.97603,139.217624 112.415484,139.583127 112.188784,139.7995 C111.964006,140.014038 111.625886,140.540041 111.711459,141.271257 C111.728091,141.413375 111.753783,141.649286 111.883229,141.920202 C111.929702,142.017466 112.031554,142.172242 112.188784,142.384529 Z" id="Combined-Shape" fill="#9013FE"></path>
                <g id="Combined-Shape">
                    <use fill="black" fill-opacity="1" filter="url(#filter-2)" xlink:href="#path-1"></use>
                    <use fill="#9013FE" fill-rule="evenodd" xlink:href="#path-1"></use>
                </g>
            </g>
        </g>
    </g>
</svg>