<?xml version="1.0" encoding="UTF-8"?>
<svg width="252px" height="252px" viewBox="0 0 252 252" version="1.1" xmlns="http://www.w3.org/2000/svg" xmlns:xlink="http://www.w3.org/1999/xlink">
    <!-- Generator: Sketch 51.1 (57501) - http://www.bohemiancoding.com/sketch -->
    <title>Quicker_Icon</title>
    <desc>Created with Sketch.</desc>
    <defs>
        <linearGradient x1="0%" y1="0%" x2="100%" y2="100%" id="linearGradient-1">
            <stop stop-color="#F5A623" offset="0%"></stop>
            <stop stop-color="#F7771C" offset="100%"></stop>
        </linearGradient>
    </defs>
    <g id="Page-1" stroke="none" stroke-width="1" fill="none" fill-rule="evenodd">
        <g id="Desktop-HD-Copy-14" transform="translate(-625.000000, -2044.000000)" fill="url(#linearGradient-1)">
            <g id="Group-17" transform="translate(-3.000000, 1752.000000)">
                <g id="Quicker_Icon" transform="translate(628.000000, 292.000000)">
                    <g id="Watch_Hands" transform="translate(76.315227, 118.562141)">
                        <path d="M34.0835757,21.2265358 C34.5425694,22.2106675 34.8006381,23.3198327 34.8006381,24.4931819 C34.8006381,28.5545286 31.7087695,31.8469006 27.8947562,31.8469006 C24.0807429,31.8469006 20.9888742,28.5545286 20.9888742,24.4931819 C20.9888742,23.5943759 21.1403045,22.7332319 21.4174798,21.9371009 L0.0402206798,4.3044447 C-0.0372359549,3.01972702 0.129105681,2.09552715 0.539245588,1.53184508 C0.949385495,0.968163016 1.70828139,0.620748498 2.81593328,0.48960153 L24.1494683,18.3138076 C25.2283751,17.5707974 26.5142615,17.1394631 27.8947562,17.1394631 C29.3746081,17.1394631 30.7457433,17.6351199 31.8697396,18.4790346 L46.3753555,4.61013403 C47.2336901,4.79152725 47.7862097,5.13445649 48.0329142,5.63892174 C48.2796186,6.143387 48.2836414,6.93848452 48.0449825,8.02421431 L34.0835757,21.2265358 Z" id="Combined-Shape"></path>
                    </g>
                    <path d="M126,252 C56.4121215,252 -3.63797881e-11,195.587878 -3.63797881e-11,126 C-3.63797881e-11,56.4121215 56.4121215,2.27373675e-13 126,2.27373675e-13 C195.587878,2.27373675e-13 252,56.4121215 252,126 C252,195.587878 195.587878,252 126,252 Z M98.8852187,82.1652759 C107.364427,81.5278199 113.143251,81.4006131 116.22169,81.7836556 C126.082033,83.0105536 130.94917,86.2144187 131.982563,86.6909139 C139.924675,90.3530064 145.816781,94.9182637 149.451568,99.4251299 C151.049747,101.406753 154.875436,106.007092 157.608855,111.219758 C158.925058,113.729772 160.770109,117.297651 162.014426,121.498186 C164.143463,128.685334 165.0468,137.141094 164.828371,140.966822 C164.723064,142.811237 164.79901,145.505215 164.265577,148.948053 C163.959136,150.92586 163.208752,154.46923 162.014426,159.578163 C166.88109,152.527164 169.988939,147.870984 171.337971,145.609623 C173.927199,141.269343 176.526801,134.45378 177.495867,130.486923 C177.847815,129.046229 178.268865,126.465183 178.759015,122.743787 C177.542134,124.169046 176.643383,125.0609 176.062763,125.419352 C174.960611,126.099776 173.9809,126.756831 173.108226,127.017961 C171.699661,127.439447 170.548127,127.41382 169.85809,127.357733 C168.834896,127.274567 167.122619,126.696799 165.573742,124.801904 C165.42929,124.62518 165.042231,123.946917 164.725432,123.176198 C164.493943,122.613024 164.299968,122.000483 164.265577,121.498186 C164.223386,120.881961 164.165563,120.036431 164.265577,119.334827 C164.341454,118.802548 164.490718,118.291799 164.744028,117.807223 C165.089721,117.14592 165.62919,116.533363 166.440361,115.981355 C166.578836,115.887122 167.80548,115.280002 169.182024,114.939736 C170.489261,114.616602 171.933626,114.564163 172.638026,114.314086 C173.530647,113.997186 177.850076,113.244475 180.125861,111.219758 C182.436359,109.164157 184.386902,106.234493 184.923317,105.420957 C186.819816,102.544697 187.261017,99.7173356 187.891113,97.6403325 C188.874971,94.3972155 189.060791,89.4857865 188.448572,82.9060456 C185.208318,86.4748786 182.884059,88.9192549 181.475795,90.2391746 C178.335863,93.1821313 175.252352,95.1197111 173.928196,95.8931343 C171.713212,97.1868794 168.778663,97.3494226 165.124549,96.3807639 C168.781736,93.769096 171.286228,91.861828 172.638026,90.6589601 C176.235254,87.4580437 178.349944,84.6012477 179.717812,82.9060456 C181.62463,80.5429199 185.474788,74.7563823 186.71199,66.4405161 C187.135816,63.5917647 187.135816,58.6817583 186.71199,51.7104968 C183.572946,55.7271994 181.241553,58.4490915 179.717812,59.8761731 C176.165756,63.2029008 172.830536,65.1695386 170.06778,66.4405161 C167.292949,67.7170485 163.148689,69.6035919 158.226679,70.1920841 C156.138728,70.4417266 152.617713,70.3139426 147.663634,69.8087321 C147.390837,73.7194954 146.723016,76.3653734 145.660171,77.7463659 C145.261302,78.2646305 144.497892,79.5636008 143.508963,80.3982132 C142.833244,80.9684904 142.295315,81.4788736 141.499132,81.7836556 C141.337295,81.8456075 140.609861,82.3382287 139.749354,82.6517458 C139.280394,82.8226068 138.771911,82.940273 138.293914,82.9060456 C137.750427,82.8671288 137.212867,82.5897692 136.749097,82.2550998 C136.007732,81.7201095 135.45493,81.0386693 135.367914,80.9507025 C135.065475,80.6449591 134.898204,80.1016818 134.809261,79.5288313 C134.706563,78.8673938 134.708293,78.1665293 134.726955,77.7463659 C134.793346,76.2515866 136.187176,73.6057086 138.908445,69.8087321 C130.384194,70.4277504 123.867464,71.4294701 119.358256,72.8138911 C117.11072,73.5039315 114.108188,74.2745051 110.784604,75.7746972 C108.554945,76.7811158 104.588483,78.9113087 98.8852187,82.1652759 Z M105.834082,188.88598 C132.726926,188.88598 154.527883,167.032574 154.527883,140.075032 C154.527883,113.11749 132.726926,91.2640846 105.834082,91.2640846 C78.9412381,91.2640846 57.1402806,113.11749 57.1402806,140.075032 C57.1402806,167.032574 78.9412381,188.88598 105.834082,188.88598 Z" id="Polygone_Quicker"></path>
                </g>
            </g>
        </g>
    </g>
</svg>