<?xml version="1.0" encoding="UTF-8"?>
<svg width="302px" height="351px" viewBox="0 0 302 351" version="1.1" xmlns="http://www.w3.org/2000/svg" xmlns:xlink="http://www.w3.org/1999/xlink">
    <!-- Generator: Sketch 49.1 (51147) - http://www.bohemiancoding.com/sketch -->
    <title>Safer_Icon</title>
    <desc>Created with Sketch.</desc>
    <defs>
        <linearGradient x1="19.4159565%" y1="15.7460863%" x2="100%" y2="103.045108%" id="linearGradient-1">
            <stop stop-color="#FF9600" offset="0%"></stop>
            <stop stop-color="#F7771C" offset="100%"></stop>
        </linearGradient>
        <path d="M150.566151,206.68421 C129.943615,206.68421 113.225746,189.908737 113.225746,169.215142 C113.225746,148.521548 129.943615,131.746075 150.566151,131.746075 C171.188688,131.746075 187.906557,148.521548 187.906557,169.215142 C187.906557,189.908737 171.188688,206.68421 150.566151,206.68421 Z M135.134667,172.097274 L144.975484,182.005374 C145.25016,182.241993 145.450143,182.395472 145.575433,182.465809 C145.864656,182.628179 146.172563,182.716142 146.342141,182.716142 C146.519533,182.716142 146.745304,182.643486 147.050044,182.465809 C147.167294,182.397448 147.35652,182.243969 147.61772,182.005374 L166.268629,158.711755 C166.520901,158.35508 166.675341,158.106579 166.731948,157.966252 C166.902764,157.542802 166.919406,157.217302 166.903456,157.054518 C166.839834,156.405204 166.494068,155.964059 166.268629,155.745603 C166.109075,155.590992 165.450307,155.272743 164.913234,155.229799 C164.777242,155.218925 164.3705,155.223275 163.806751,155.468008 C163.628124,155.545553 163.392036,155.748112 163.098487,156.075684 L146.991457,176.182539 C146.638475,176.527387 146.373879,176.699811 146.19767,176.699811 C146.021462,176.699811 145.759146,176.527387 145.410724,176.182539 L138.586804,169.162584 C138.313394,168.919464 138.122048,168.765875 138.012765,168.701817 C137.531019,168.41943 137.222442,168.394428 137.019261,168.372153 C136.082928,168.2695 135.407735,168.711276 135.134667,168.972802 C134.863916,169.23211 134.456641,169.867879 134.559716,170.751685 C134.579749,170.92346 134.610696,171.208601 134.766617,171.536051 C134.822596,171.653613 134.945279,171.840687 135.134667,172.097274 Z" id="path-2"></path>
        <filter x="-2.7%" y="-2.7%" width="105.4%" height="105.3%" filterUnits="objectBoundingBox" id="filter-3">
            <feGaussianBlur stdDeviation="1.5" in="SourceAlpha" result="shadowBlurInner1"></feGaussianBlur>
            <feOffset dx="0" dy="1" in="shadowBlurInner1" result="shadowOffsetInner1"></feOffset>
            <feComposite in="shadowOffsetInner1" in2="SourceAlpha" operator="arithmetic" k2="-1" k3="1" result="shadowInnerInner1"></feComposite>
            <feColorMatrix values="0 0 0 0 0   0 0 0 0 0   0 0 0 0 0  0 0 0 0.5 0" type="matrix" in="shadowInnerInner1"></feColorMatrix>
        </filter>
        <path d="M150.566151,0 L301.132303,87.6292702 L301.132303,262.887811 L150.566151,350.517081 L2.84217094e-14,262.887811 L-6.75015599e-14,87.6292702 L150.566151,0 Z M139.239593,95.3930181 C136.26307,97.4376431 133.000462,100.508879 125.633476,104.313967 C121.78844,106.299949 115.920129,108.496553 113.217603,109.035609 C104.197936,110.834706 102.515492,110.601766 94.7211639,110.601766 C86.9268362,110.601766 84.0147678,113.195722 83.305339,113.937714 C82.0572473,115.243094 81.4064151,116.926848 81.1803687,118.001031 C80.8258351,119.685791 80.8258351,122.099723 81.1803687,125.242828 L84.8239584,190.244648 C85.338694,193.87131 85.7357687,196.294557 86.0151825,197.51439 C87.0143009,201.876227 88.4340648,205.35413 89.7154681,207.977463 C90.7747731,210.146109 91.9543942,212.978046 94.2398107,216.280605 C95.3324024,217.859463 97.4507956,220.487191 100.59499,224.16379 C103.974483,227.179142 106.380439,229.280371 107.812857,230.467475 C111.439658,233.473157 113.621225,235.045338 115.651036,236.616675 C120.013704,239.993945 125.53007,243.388138 128.511372,245.683657 C134.805976,250.530324 142.105314,255.966466 150.409388,261.992082 L194.057868,230.467475 C197.635158,227.574301 199.92618,225.614206 200.930934,224.58719 C202.047263,223.446126 203.987627,221.088459 205.93996,218.462095 C208.368086,215.195673 210.814725,211.51363 211.717657,209.239513 C212.481239,207.316361 213.953068,204.034279 215.083092,199.417023 C215.457287,197.888068 215.888775,195.266249 216.377557,191.551568 L220.29004,120.480527 C220.131189,117.306466 219.616458,115.249428 218.745847,114.309411 C218.330987,113.861477 217.823983,113.201749 217.358737,112.870955 C214.628268,110.929568 211.096267,111.121016 210.290102,111.081548 C207.604884,110.950085 203.282879,110.717246 200.588661,110.601766 C198.109457,110.495503 194.77016,110.304578 192.560095,110.060976 C189.825405,109.759547 186.78176,108.778235 184.715446,108.134446 C180.415767,106.794819 177.179517,105.152152 174.039777,103.328634 C171.40672,101.799391 168.046183,99.5422459 163.958165,96.5571994 L163.38497,96.1111232 C156.352224,90.6376793 146.585192,90.347199 139.239593,95.3930181 Z" id="path-4"></path>
        <filter x="-0.7%" y="-0.6%" width="101.3%" height="101.1%" filterUnits="objectBoundingBox" id="filter-5">
            <feGaussianBlur stdDeviation="1.5" in="SourceAlpha" result="shadowBlurInner1"></feGaussianBlur>
            <feOffset dx="0" dy="1" in="shadowBlurInner1" result="shadowOffsetInner1"></feOffset>
            <feComposite in="shadowOffsetInner1" in2="SourceAlpha" operator="arithmetic" k2="-1" k3="1" result="shadowInnerInner1"></feComposite>
            <feColorMatrix values="0 0 0 0 0   0 0 0 0 0   0 0 0 0 0  0 0 0 0.5 0" type="matrix" in="shadowInnerInner1"></feColorMatrix>
        </filter>
    </defs>
    <g id="Page-1" stroke="none" stroke-width="1" fill="none" fill-rule="evenodd">
        <g id="Desktop-HD-Copy-2" transform="translate(-323.000000, -1615.000000)">
            <g id="Safer_Icon" transform="translate(323.000000, 1615.000000)">
                <g id="Combined-Shape">
                    <use fill="url(#linearGradient-1)" fill-rule="evenodd" xlink:href="#path-2"></use>
                    <use fill="black" fill-opacity="1" filter="url(#filter-3)" xlink:href="#path-2"></use>
                </g>
                <g id="Combined-Shape">
                    <use fill="url(#linearGradient-1)" fill-rule="evenodd" xlink:href="#path-4"></use>
                    <use fill="black" fill-opacity="1" filter="url(#filter-5)" xlink:href="#path-4"></use>
                </g>
            </g>
        </g>
    </g>
</svg>