<?xml version="1.0" encoding="UTF-8"?>
<svg width="301px" height="350px" viewBox="0 0 301 350" version="1.1" xmlns="http://www.w3.org/2000/svg" xmlns:xlink="http://www.w3.org/1999/xlink">
    <!-- Generator: Sketch 49.1 (51147) - http://www.bohemiancoding.com/sketch -->
    <title>Quicker_Icon</title>
    <desc>Created with Sketch.</desc>
    <defs>
        <linearGradient x1="0%" y1="0%" x2="100%" y2="100%" id="linearGradient-1">
            <stop stop-color="#F5A623" offset="0%"></stop>
            <stop stop-color="#F7771C" offset="100%"></stop>
        </linearGradient>
        <path d="M44.2442931,27.5544174 C44.8401182,28.8319305 45.1751203,30.2717509 45.1751203,31.7948893 C45.1751203,37.0669716 41.161529,41.3408387 36.2105132,41.3408387 C31.2594974,41.3408387 27.2459061,37.0669716 27.2459061,31.7948893 C27.2459061,30.6281386 27.4424796,29.5102774 27.8022841,28.4768104 L0.0522109406,5.58765062 C-0.0483364339,3.9199434 0.167593613,2.7202286 0.700001081,1.98850624 C1.23240855,1.25678387 2.2175403,0.805800974 3.65539633,0.635557542 L31.3487107,23.7733704 C32.7492524,22.8088601 34.4184767,22.24894 36.2105132,22.24894 C38.1315265,22.24894 39.9114134,22.8923579 41.3704862,23.9878536 L60.2003979,5.98446956 C61.3146123,6.21993825 62.0318445,6.66509875 62.3520944,7.31995107 C62.6723444,7.97480339 62.6775665,9.00692889 62.3677605,10.4163276 L44.2442931,27.5544174 Z" id="path-2"></path>
        <filter x="-3.2%" y="-4.9%" width="106.4%" height="109.8%" filterUnits="objectBoundingBox" id="filter-3">
            <feGaussianBlur stdDeviation="1.5" in="SourceAlpha" result="shadowBlurInner1"></feGaussianBlur>
            <feOffset dx="0" dy="1" in="shadowBlurInner1" result="shadowOffsetInner1"></feOffset>
            <feComposite in="shadowOffsetInner1" in2="SourceAlpha" operator="arithmetic" k2="-1" k3="1" result="shadowInnerInner1"></feComposite>
            <feColorMatrix values="0 0 0 0 0   0 0 0 0 0   0 0 0 0 0  0 0 0 0.5 0" type="matrix" in="shadowInnerInner1"></feColorMatrix>
        </filter>
        <path d="M150.5,0 L301,87.5 L301,262.5 L150.5,350 L4.61852778e-14,262.5 L-4.97379915e-14,87.5 L150.5,0 Z M115.782374,118.097626 C126.789335,117.270137 134.290894,117.105008 138.287052,117.60224 C151.08688,119.194891 157.404969,123.353866 158.746428,123.97241 C169.056178,128.726216 176.70479,134.65243 181.42315,140.502847 C183.497765,143.075215 188.463937,149.04697 192.012222,155.813593 C193.720799,159.071872 196.115882,163.703378 197.731145,169.156142 C200.494873,178.485864 201.667505,189.462386 201.38396,194.428609 C201.24726,196.822866 201.345847,200.319951 200.653391,204.789139 C200.255596,207.356554 199.281514,211.956244 197.731145,218.588211 C204.048619,209.435226 208.082954,203.390983 209.834149,200.455484 C213.195256,194.821315 216.56983,185.973952 217.827786,180.824528 C218.284655,178.954345 218.831224,175.60386 219.467494,170.773072 C217.887846,172.623216 216.721167,173.780944 215.967458,174.246254 C214.536741,175.12952 213.264966,175.982451 212.132138,176.321428 C210.303662,176.868564 208.808844,176.835297 207.913098,176.76249 C206.584877,176.65453 204.36215,175.904523 202.351536,173.444737 C202.16402,173.21533 201.661574,172.334868 201.250334,171.33439 C200.949835,170.603326 200.698035,169.80818 200.653391,169.156142 C200.598622,168.356213 200.523561,167.258621 200.653391,166.34786 C200.751888,165.656902 200.945649,164.993893 201.274473,164.364859 C201.723221,163.506414 202.423513,162.711247 203.476504,161.994679 C203.656259,161.872353 205.248581,161.084244 207.035489,160.64254 C208.732428,160.223076 210.607376,160.155005 211.521765,159.830377 C212.680488,159.419005 218.28759,158.441902 221.241813,155.813593 C224.241098,153.145193 226.77312,149.342161 227.469447,148.286101 C229.931316,144.552394 230.504043,140.882162 231.321979,138.18598 C232.599137,133.976051 232.840351,127.600467 232.045623,119.059228 C227.83941,123.691972 224.822263,126.865046 222.994179,128.578449 C218.918195,132.398736 214.915454,134.913931 213.196551,135.917921 C210.321254,137.597347 206.511881,137.808346 201.768432,136.550919 C206.51587,133.160682 209.766981,130.684835 211.521765,129.123378 C216.19137,124.96823 218.936475,121.25979 220.712119,119.059228 C223.187383,115.991626 228.185318,108.480053 229.791345,97.6851289 C230.341519,93.9871311 230.341519,87.6133936 229.791345,78.5639165 C225.716515,83.7780457 222.690107,87.311366 220.712119,89.1638776 C216.101154,93.4823422 211.771665,96.0352579 208.185299,97.6851289 C204.583258,99.3422107 199.203546,101.791155 192.814225,102.555084 C190.103831,102.879148 185.53316,102.71327 179.102212,102.05745 C178.748091,107.134058 177.881185,110.568704 176.501493,112.361386 C175.983716,113.034152 174.992725,114.720361 173.708984,115.803781 C172.831825,116.544064 172.133534,117.206599 171.099999,117.60224 C170.889917,117.68266 169.945625,118.322138 168.828591,118.729118 C168.219829,118.950915 167.559761,119.103659 166.939267,119.059228 C166.233761,119.008709 165.535948,118.648666 164.933923,118.214227 C163.971547,117.51975 163.253949,116.635164 163.140993,116.520974 C162.748393,116.124085 162.531256,115.41885 162.415798,114.675226 C162.282485,113.816606 162.284731,112.906805 162.308956,112.361386 C162.395138,110.420996 164.204486,106.98635 167.736997,102.05745 C156.671566,102.861005 148.212122,104.161349 142.358666,105.958482 C139.441113,106.854232 135.54349,107.854523 131.229106,109.80194 C128.33476,111.108384 123.185849,113.873612 115.782374,118.097626 Z M124.802775,256.633035 C159.712694,256.633035 188.012775,228.26487 188.012775,193.270966 C188.012775,158.277062 159.712694,129.908897 124.802775,129.908897 C89.8928563,129.908897 61.5927753,158.277062 61.5927753,193.270966 C61.5927753,228.26487 89.8928563,256.633035 124.802775,256.633035 Z" id="path-4"></path>
        <filter x="-0.7%" y="-0.6%" width="101.3%" height="101.1%" filterUnits="objectBoundingBox" id="filter-5">
            <feGaussianBlur stdDeviation="1.5" in="SourceAlpha" result="shadowBlurInner1"></feGaussianBlur>
            <feOffset dx="0" dy="1" in="shadowBlurInner1" result="shadowOffsetInner1"></feOffset>
            <feComposite in="shadowOffsetInner1" in2="SourceAlpha" operator="arithmetic" k2="-1" k3="1" result="shadowInnerInner1"></feComposite>
            <feColorMatrix values="0 0 0 0 0   0 0 0 0 0   0 0 0 0 0  0 0 0 0.5 0" type="matrix" in="shadowInnerInner1"></feColorMatrix>
        </filter>
    </defs>
    <g id="Page-1" stroke="none" stroke-width="1" fill="none" fill-rule="evenodd">
        <g id="Desktop-HD-Copy-2" transform="translate(-808.000000, -1605.000000)">
            <g id="Quicker_Icon" transform="translate(808.000000, 1605.000000)">
                <g id="Watch_Hands" transform="translate(86.484000, 165.344828)">
                    <g id="Combined-Shape">
                        <use fill="url(#linearGradient-1)" fill-rule="evenodd" xlink:href="#path-2"></use>
                        <use fill="black" fill-opacity="1" filter="url(#filter-3)" xlink:href="#path-2"></use>
                    </g>
                </g>
                <g id="Polygone_Quicker">
                    <use fill="#FF9600" fill-rule="evenodd" xlink:href="#path-4"></use>
                    <use fill="black" fill-opacity="1" filter="url(#filter-5)" xlink:href="#path-4"></use>
                </g>
            </g>
        </g>
    </g>
</svg>