<?xml version="1.0" encoding="UTF-8"?>
<svg width="260px" height="298px" viewBox="0 0 260 298" version="1.1" xmlns="http://www.w3.org/2000/svg" xmlns:xlink="http://www.w3.org/1999/xlink">
    <!-- Generator: Sketch 49.1 (51147) - http://www.bohemiancoding.com/sketch -->
    <title>Quicker_Icon</title>
    <desc>Created with Sketch.</desc>
    <defs>
        <path d="M126,0 L252,72.5 L252,217.5 L126,290 L9.59232693e-14,217.5 L1.77635684e-14,72.5 L126,0 Z M96.9340802,97.8523185 C106.14921,97.1666846 112.429586,97.0298637 115.775207,97.441856 C126.491342,98.7614809 131.780904,102.207489 132.903986,102.719997 C141.535404,106.658864 147.938894,111.569156 151.889149,116.416644 C153.626036,118.548035 157.783762,123.496061 160.754418,129.102691 C162.184855,131.802408 164.190041,135.639941 165.542354,140.157946 C167.856173,147.888288 168.837911,156.98312 168.600524,161.097991 C168.486078,163.081803 168.568616,165.979388 167.988886,169.682429 C167.655848,171.809716 166.840337,175.620888 165.542354,181.115946 C170.831402,173.532044 174.208985,168.523958 175.675102,166.091686 C178.489052,161.423375 181.314276,154.092703 182.367449,149.826038 C182.749944,148.276458 183.207536,145.500341 183.740228,141.497688 C182.417732,143.030665 181.440977,143.989925 180.809965,144.375467 C179.612156,145.107317 178.547414,145.814031 177.598999,146.094897 C176.068183,146.548238 174.816706,146.520675 174.066779,146.460348 C172.954781,146.370896 171.093893,145.749462 169.410588,143.711353 C169.253598,143.521274 168.832946,142.791748 168.488651,141.96278 C168.237071,141.357042 168.026261,140.698206 167.988886,140.157946 C167.943032,139.495148 167.880191,138.585714 167.988886,137.831084 C168.071348,137.258576 168.233567,136.709225 168.508861,136.188026 C168.884557,135.476743 169.470848,134.81789 170.352422,134.224162 C170.502915,134.122807 171.836021,133.469802 173.332037,133.103819 C174.75273,132.756263 176.322454,132.699861 177.08799,132.430883 C178.058083,132.090032 182.752401,131.280433 185.225704,129.102691 C187.736733,126.891731 189.856566,123.740648 190.439537,122.865626 C192.500636,119.771984 192.980129,116.730934 193.664913,114.496955 C194.734161,111.008728 194.936108,105.726101 194.270754,98.6490744 C190.749274,102.487634 188.22329,105.116752 186.692801,106.536429 C183.28035,109.70181 179.929217,111.785829 178.490136,112.617706 C176.08291,114.00923 172.893667,114.184058 168.922408,113.14219 C172.897007,110.333136 175.618868,108.28172 177.08799,106.987942 C180.997426,103.545105 183.295653,100.472397 184.78224,98.6490744 C186.854553,96.1073475 191.038871,89.8834727 192.383452,80.9391068 C192.844063,77.8750514 192.844063,72.5939547 192.383452,65.0958165 C188.971966,69.416095 186.438229,72.3437033 184.78224,73.8786414 C180.921896,77.4567978 177.297208,79.5720709 174.294669,80.9391068 C171.279006,82.3121174 166.775061,84.3412428 161.425863,84.9742123 C159.156696,85.2427223 155.330088,85.1052806 149.946038,84.5618871 C149.649565,88.7682196 148.923782,91.6140687 147.768691,93.0994345 C147.335204,93.6568686 146.505537,95.054013 145.430778,95.951704 C144.696412,96.5650819 144.111796,97.114039 143.246511,97.441856 C143.070628,97.5084901 142.280058,98.0383427 141.344867,98.375555 C140.835205,98.5593293 140.28259,98.6858886 139.763107,98.6490744 C139.172451,98.6072163 138.588235,98.3088943 138.084214,97.9489311 C137.278505,97.3735071 136.677725,96.6405648 136.583157,96.5459496 C136.254469,96.2170986 136.072679,95.6327613 135.976017,95.0166157 C135.864406,94.3051878 135.866286,93.5513531 135.886568,93.0994345 C135.958721,91.4916821 137.473523,88.645833 140.430974,84.5618871 C131.166893,85.2276898 124.084568,86.3051178 119.183999,87.7941711 C116.741397,88.5363637 113.47827,89.3651761 109.866229,90.9787503 C107.443055,92.0612323 103.132339,94.3524217 96.9340802,97.8523185 Z M108.303795,212.995467 C136.29897,212.995467 158.993545,189.410574 158.993545,160.317134 C158.993545,131.223694 136.29897,107.6388 108.303795,107.6388 C80.3086186,107.6388 57.6140445,131.223694 57.6140445,160.317134 C57.6140445,189.410574 80.3086186,212.995467 108.303795,212.995467 Z" id="path-1"></path>
        <filter x="-2.8%" y="-1.7%" width="105.6%" height="104.8%" filterUnits="objectBoundingBox" id="filter-2">
            <feOffset dx="0" dy="2" in="SourceAlpha" result="shadowOffsetOuter1"></feOffset>
            <feGaussianBlur stdDeviation="2" in="shadowOffsetOuter1" result="shadowBlurOuter1"></feGaussianBlur>
            <feColorMatrix values="0 0 0 0 0   0 0 0 0 0   0 0 0 0 0  0 0 0 0.5 0" type="matrix" in="shadowBlurOuter1"></feColorMatrix>
        </filter>
    </defs>
    <g id="Page-1" stroke="none" stroke-width="1" fill="none" fill-rule="evenodd">
        <g id="Desktop-HD-Copy" transform="translate(-952.000000, -1007.000000)">
            <g id="Quicker_Icon" transform="translate(956.000000, 1009.000000)">
                <g id="Watch_Hands" transform="translate(78.000000, 136.000000)" fill="#9013FE">
                    <ellipse id="Oval-2" cx="31.1529878" cy="26.3443369" rx="7.50525247" ry="7.90950089"></ellipse>
                    <path d="M24.3544385,23.7917221 L0.880920787,4.62976765 C0.79674159,3.2479531 0.977520234,2.2539037 1.42325672,1.64761945 C1.8689932,1.04133521 2.69375467,0.667663664 3.89754111,0.526604821 L27.3120518,19.8876306 L24.3544385,23.7917221 Z" id="Path-2" stroke="#979797"></path>
                    <path d="M48.833885,32.1284931 L25.3603673,12.9665387 C25.2761881,11.5847241 25.4569667,10.5906747 25.9027032,9.98439045 C26.3484397,9.37810621 27.1732011,9.00443466 28.3769876,8.86337582 L51.7914983,28.2244016 L48.833885,32.1284931 Z" id="Path-2-Copy" stroke="#979797" transform="translate(38.565904, 20.495934) rotate(107.000000) translate(-38.565904, -20.495934) "></path>
                </g>
                <g id="Polygone_Quicker">
                    <use fill="black" fill-opacity="1" filter="url(#filter-2)" xlink:href="#path-1"></use>
                    <use fill="#9013FE" fill-rule="evenodd" xlink:href="#path-1"></use>
                </g>
            </g>
        </g>
    </g>
</svg>