<?xml version="1.0" encoding="UTF-8"?>
<svg width="267px" height="307px" viewBox="0 0 267 307" version="1.1" xmlns="http://www.w3.org/2000/svg" xmlns:xlink="http://www.w3.org/1999/xlink">
    <!-- Generator: Sketch 49.1 (51147) - http://www.bohemiancoding.com/sketch -->
    <title>Cheaper_Icon</title>
    <desc>Created with Sketch.</desc>
    <defs>
        <path d="M104,137.72246 C106.698657,136.759597 108.602339,136.114321 109.711046,135.786632 C111.858461,135.151944 113.654734,134.829656 114.874538,134.567358 C120.470275,133.364095 124.945271,133.216322 127.796865,133.051795 C132.302992,132.791807 139.140317,133.496539 148.308841,135.165991 L147.110181,139.894584 C143.122972,139.089885 140.21162,138.582156 138.376127,138.371399 C132.962914,137.749835 128.308868,137.78951 125.439586,137.940169 C122.608306,138.088832 118.646816,138.499978 113.90137,139.631113 C112.22824,140.029924 109.508561,140.841789 105.742333,142.066708 L104,137.72246 Z M178.679055,150.984858 C179.090389,151.047276 179.266723,151.113096 179.460347,151.244763 C179.632534,151.361852 179.832154,151.531181 180.012549,151.793954 C180.347309,152.281585 180.613902,152.860482 180.767067,153.436383 C180.982882,154.247851 181,155.152859 181,155.500142 C181,155.822346 180.624481,157.533733 180.340588,157.972696 C180.177226,158.225291 179.9736,158.809769 179.548631,159.228393 C179.369465,159.404884 179.006572,159.643016 178.459949,159.942791 C178.343157,159.97143 178.263914,159.987744 178.222221,159.991733 C178.02727,160.010384 177.929592,159.991632 177.871099,159.991733 C177.809485,159.991838 177.60411,159.986205 177.44502,159.942791 C177.28033,159.897849 177.026014,159.751978 176.964153,159.724484 C176.558547,159.544218 176.339991,159.150393 176.212462,158.906074 C176.192199,158.867256 175.757979,158.335775 175.595806,157.662786 C175.504509,157.28392 175.423441,156.858597 175.395394,156.474627 C175.361515,156.01081 175.447652,154.985419 175.502479,154.690707 C175.535042,154.515667 175.754817,153.510567 175.932427,153.180722 C176.022821,153.012848 176.09918,152.749578 176.310669,152.444737 C176.450161,152.243674 176.769712,151.886883 177.269321,151.374364 C177.69106,151.036077 178.160971,150.906242 178.679055,150.984858 Z M126.922282,113.907509 C117.89403,113.907509 110.575185,106.540913 110.575185,97.4537547 C110.575185,88.3665969 117.89403,81 126.922282,81 C135.950534,81 143.269378,88.3665969 143.269378,97.4537547 C143.269378,106.540913 135.950534,113.907509 126.922282,113.907509 Z M131.39035,90.8720837 C131.349293,90.7350376 131.236842,90.6431204 131.052994,90.5963322 C130.331371,90.4126831 129.337069,90.2075976 128.070086,89.9810755 L128.070086,88.0207656 L125.791792,88.0207656 L125.791792,90.213707 C125.196605,90.3519524 124.797703,90.4615112 124.595085,90.5423834 C124.392468,90.6232556 124.077345,90.7986912 123.649716,91.0686904 C122.811421,91.7998089 122.301232,92.4397155 122.119149,92.9884102 C122.007962,93.3234653 121.871039,93.778569 121.895643,94.3594644 C121.906101,94.6063934 122.010997,95.0744998 122.21033,95.7637838 C122.317235,95.9873223 122.414206,96.1638166 122.501241,96.2932665 C122.771548,96.695301 123.061118,96.964847 123.231676,97.1292885 C123.283402,97.1791596 123.463666,97.3107586 123.649716,97.4441022 C123.873637,97.6045889 124.136299,97.7809937 124.595085,97.9976774 C125.021361,98.1990065 125.885405,98.5511225 127.187219,99.0540255 C127.773503,99.3808658 128.132904,99.6524461 128.265424,99.8687667 C128.358938,100.021418 128.612396,100.496754 128.492882,100.87352 C128.358352,101.297622 127.836567,101.621398 127.717765,101.690488 C127.463898,101.838123 127.198938,101.920003 127.051645,101.953561 C126.885881,101.991326 126.29976,102.082654 125.562889,102.012296 C124.979217,101.956565 124.221039,101.748415 124.064573,101.690488 C123.783997,101.586611 123.262886,101.354718 122.501241,100.994808 L121.816616,103.619873 C122.497648,104.001213 123.058582,104.249581 123.499418,104.364975 C123.940253,104.48037 124.652406,104.565248 125.635874,104.619612 L125.635874,106.867439 L127.938052,106.867439 L127.938052,104.47789 C128.402571,104.400691 128.727063,104.329616 128.911529,104.264667 C129.678929,103.99447 130.138611,103.680525 130.367171,103.526066 C130.678144,103.315915 131.060576,102.878518 131.514469,102.213875 C131.737512,101.720326 131.875043,101.372855 131.927061,101.171462 C132.05218,100.687055 131.999178,100.304163 132.002657,100.018893 C132.007076,99.6566115 131.965247,98.8608626 131.430275,98.1255091 C131.291807,97.9351761 131.122018,97.6373858 130.781166,97.3359363 C130.663531,97.2319003 130.040592,96.7529637 129.303533,96.3999586 C128.289943,95.9145118 126.95406,95.4502437 126.762327,95.3627742 C126.541556,95.2620575 126.263997,95.095871 125.929652,94.8642149 C125.689898,94.5643819 125.543262,94.359926 125.489742,94.2508473 C125.428912,94.1268665 125.420866,94.0049406 125.415111,93.9251776 C125.412532,93.8894253 125.438517,93.7099952 125.51276,93.5293382 C125.572147,93.3848303 125.681824,93.2388067 125.756474,93.1548801 C125.843924,93.0565624 126.019185,92.9432761 126.202468,92.8626062 C126.371233,92.7883263 126.584014,92.7442227 126.663505,92.7318497 C126.87666,92.6986719 127.282725,92.6607152 127.531688,92.6643604 C127.84575,92.6689588 128.215049,92.6945621 128.371803,92.7047228 C128.887906,92.7381764 129.668905,92.9884093 130.7148,93.4554214 L131.39035,90.8720837 Z" id="path-1"></path>
        <filter x="-9.1%" y="-6.3%" width="118.2%" height="117.7%" filterUnits="objectBoundingBox" id="filter-2">
            <feOffset dx="0" dy="2" in="SourceAlpha" result="shadowOffsetOuter1"></feOffset>
            <feGaussianBlur stdDeviation="2" in="shadowOffsetOuter1" result="shadowBlurOuter1"></feGaussianBlur>
            <feColorMatrix values="0 0 0 0 0   0 0 0 0 0   0 0 0 0 0  0 0 0 0.5 0" type="matrix" in="shadowBlurOuter1"></feColorMatrix>
        </filter>
        <path d="M129.5,0 L259,74.75 L259,224.25 L129.5,299 L7.10542736e-15,224.25 L-7.81597009e-14,74.75 L129.5,0 Z M67.0920856,167.980405 C67.1567,172.266927 67.5764885,175.31137 68.3514511,177.113733 C68.8775919,178.337401 69.5076094,181.327023 71.969634,185.146503 C72.7458589,186.350706 74.3316543,188.366409 76.7270203,191.193614 C78.8624082,194.369358 80.4027705,196.743473 81.3481072,198.31596 C81.9429422,199.305417 83.6055282,201.844266 86.0799507,206.109241 C87.0519726,207.784641 88.69193,211.009074 90.9998231,215.78254 L105.257923,215.78254 L106.225756,208.110781 C115.016959,210.190874 121.904827,211.31114 126.88936,211.47158 C130.126983,211.575792 134.946812,211.75914 141.357401,211.038284 C143.663356,210.778985 147.585589,210.106044 153.124101,209.019463 L154.1066,215.78254 L168.321528,215.78254 C168.83461,214.092783 169.18889,212.912995 169.384366,212.243177 C170.183654,209.50435 170.836194,207.929997 171.056412,207.335463 C171.700102,205.597661 172.79016,203.370458 174.326585,200.653853 C178.607577,198.031248 181.654498,195.902581 183.467349,194.267853 C185.280201,192.633124 187.369421,190.278789 189.735012,187.204846 C190.933488,187.519156 191.787417,187.70041 192.296798,187.748607 C193.962196,187.906184 195.193697,187.657182 195.967297,187.382196 C199.154041,186.249429 201.126185,182.937167 201.567804,182.082022 C202.031151,181.184802 202.688342,179.695342 203.18553,177.594371 C203.357281,176.868601 203.560477,175.61513 203.795118,173.83396 C204.019343,171.23227 204.123506,169.414797 204.107607,168.381542 C204.053164,164.843465 203.452833,163.151859 202.726079,162.078562 C202.100686,161.154958 200.696683,160.280505 199.073677,160.274059 C198.347508,160.271175 197.020097,160.632325 195.091444,161.35751 C194.345702,159.033695 193.766523,157.39935 193.353908,156.454476 C191.844468,152.997908 190.266216,150.611597 188.960244,148.846502 C188.758154,148.573365 187.142719,146.405103 183.467349,143.127598 C182.419783,142.193432 180.423233,140.648585 177.477702,138.493056 C178.663859,136.221294 179.490621,134.651602 179.957989,133.783981 C180.381154,132.998417 180.878266,132.043805 181.340077,131.176439 C181.665431,130.565365 182.010103,129.979886 182.138445,129.604541 C182.336494,129.025335 182.528959,128.737822 182.944352,127.795797 C183.332542,126.915462 183.572242,125.980361 183.726597,125.091022 C183.854022,124.356845 183.767606,123.704643 183.467349,123.134418 C183.280022,122.892133 183.10569,122.723642 182.944352,122.628946 C182.584438,122.417698 181.987808,122.255705 181.816984,122.213301 C181.436689,122.118899 180.240733,122.003273 179.957989,121.996667 C179.718061,121.991061 179.13329,121.935072 178.594417,121.935459 C177.874027,121.935977 177.187656,121.994387 177.055432,121.996667 C176.467824,122.006798 175.927102,122.070388 175.534179,122.11983 C175.139789,122.169458 174.89348,122.205119 174.453456,122.312841 C173.434668,122.562251 170.440722,122.877452 167.304888,124.287663 C166.654452,124.58017 165.338874,125.086397 164.320667,125.664709 C163.727755,126.001466 162.755109,126.484642 161.610058,127.335739 C161.077233,127.731778 160.17805,128.488046 158.912511,129.604541 C152.614038,127.972142 148.109285,126.963512 145.398254,126.57865 C136.793858,125.357158 130.832194,125.635919 130.279161,125.664709 C128.975393,125.732579 124.647263,125.739471 120.693299,126.185865 C118.899547,126.388375 115.55746,126.846304 111.894393,127.667161 C107.947158,128.551696 103.269346,130.105964 99.9832834,131.176439 C97.9199935,131.848582 96.1113997,132.768735 93.9235095,133.783981 C92.7204981,134.342213 92.1148248,134.510636 90.8836958,135.215623 C90.6262862,135.363025 90.1720639,135.613625 89.7355252,135.85093 C89.5077029,135.974775 80.6598185,141.04472 76.261118,146.691138 C75.086654,148.198746 72.8025847,150.357042 71.1508877,153.480044 C70.4503349,154.804638 69.3907928,156.810414 68.3514511,159.825397 C68.1339001,160.456482 67.854073,161.541099 67.5119698,163.079249 C66.5792842,162.847221 65.9811229,162.664433 65.7174857,162.530886 C65.5136029,162.427607 63.5256665,161.189568 62.7669939,159.655929 C62.6463659,159.412082 61.8352541,158.333888 62.1885103,156.378845 C62.2283828,156.158176 62.3155847,155.844337 62.5828437,155.438239 C62.6728605,155.301459 62.8590272,155.072776 63.1413437,154.75219 L63.1413437,155.547936 C62.9719004,156.797086 62.6725486,157.663657 62.2432881,158.147648 C61.9562113,158.471326 60.6728824,160.474095 58.6575395,162.270637 C57.9920988,162.863833 56.8476674,163.907087 55.2242454,165.400399 C54.8224576,165.980618 54.5983583,166.404992 54.5519474,166.673523 C54.3860268,167.633529 54.7729871,168.367535 54.9861215,168.644028 C55.1858995,168.903194 55.7436914,169.447637 56.5999941,169.525925 C56.8075117,169.544898 57.1360182,169.642493 57.5670111,169.525925 C57.6863422,169.493651 57.8815281,169.384752 58.1525688,169.199229 L61.8989204,165.716069 C62.708529,164.848972 63.2932238,164.2307 63.653005,163.861253 C64.5089283,162.982333 65.2690304,162.282391 65.7174857,161.541802 C65.9875655,161.095786 66.4813979,160.476774 66.8610446,159.655929 C67.1758778,158.975219 67.7951497,157.509943 67.9538332,155.244066 C67.9932495,154.681232 67.9140307,153.724278 67.7161767,152.373204 C67.4612238,151.663717 67.2531935,151.181274 67.0920856,150.925875 C66.7481138,150.380587 66.2826176,150.050472 66.0244648,149.849868 C64.9038636,148.979078 63.1078097,149.23699 62.7669939,149.398602 C62.3640586,149.589671 61.807322,149.714165 61.0034762,150.288193 C60.5123391,150.638915 57.9212204,152.431295 57.3744142,156.002742 C57.2650962,156.716749 57.1881515,157.851578 57.5670111,159.356861 C57.7100861,159.925327 58.0735956,160.896585 58.6575395,162.270637 C60.0708399,164.072699 61.3240929,165.335743 62.4172987,166.059768 C63.5105044,166.783792 65.0687667,167.424005 67.0920856,167.980405 Z M126.165656,120.641454 C138.90622,120.641454 149.234487,110.315516 149.234487,97.5778249 C149.234487,84.8401341 138.90622,74.5141956 126.165656,74.5141956 C113.425092,74.5141956 103.096825,84.8401341 103.096825,97.5778249 C103.096825,110.315516 113.425092,120.641454 126.165656,120.641454 Z" id="path-3"></path>
        <filter x="-2.7%" y="-1.7%" width="105.4%" height="104.7%" filterUnits="objectBoundingBox" id="filter-4">
            <feOffset dx="0" dy="2" in="SourceAlpha" result="shadowOffsetOuter1"></feOffset>
            <feGaussianBlur stdDeviation="2" in="shadowOffsetOuter1" result="shadowBlurOuter1"></feGaussianBlur>
            <feColorMatrix values="0 0 0 0 0   0 0 0 0 0   0 0 0 0 0  0 0 0 0.5 0" type="matrix" in="shadowBlurOuter1"></feColorMatrix>
        </filter>
    </defs>
    <g id="Page-1" stroke="none" stroke-width="1" fill="none" fill-rule="evenodd">
        <g id="Desktop-HD-Copy" transform="translate(-119.000000, -1511.000000)">
            <g id="Cheaper_Icon" transform="translate(123.000000, 1513.000000)">
                <g id="Combined-Shape">
                    <use fill="black" fill-opacity="1" filter="url(#filter-2)" xlink:href="#path-1"></use>
                    <use fill="#9013FE" fill-rule="evenodd" xlink:href="#path-1"></use>
                </g>
                <g id="Polygone_Cheaper">
                    <use fill="black" fill-opacity="1" filter="url(#filter-4)" xlink:href="#path-3"></use>
                    <use fill="#9013FE" fill-rule="evenodd" xlink:href="#path-3"></use>
                </g>
            </g>
        </g>
    </g>
</svg>