<?xml version="1.0" encoding="UTF-8"?>
<svg width="283px" height="325px" viewBox="0 0 283 325" version="1.1" xmlns="http://www.w3.org/2000/svg" xmlns:xlink="http://www.w3.org/1999/xlink">
    <!-- Generator: Sketch 47.1 (45422) - http://www.bohemiancoding.com/sketch -->
    <title>Group 4</title>
    <desc>Created with Sketch.</desc>
    <defs>
        <filter x="-2.3%" y="-0.9%" width="104.7%" height="102.7%" filterUnits="objectBoundingBox" id="filter-1">
            <feOffset dx="0" dy="2" in="SourceAlpha" result="shadowOffsetOuter1"></feOffset>
            <feGaussianBlur stdDeviation="2" in="shadowOffsetOuter1" result="shadowBlurOuter1"></feGaussianBlur>
            <feColorMatrix values="0 0 0 0 0   0 0 0 0 0   0 0 0 0 0  0 0 0 0.5 0" type="matrix" in="shadowBlurOuter1" result="shadowMatrixOuter1"></feColorMatrix>
            <feMerge>
                <feMergeNode in="shadowMatrixOuter1"></feMergeNode>
                <feMergeNode in="SourceGraphic"></feMergeNode>
            </feMerge>
        </filter>
    </defs>
    <g id="Website" stroke="none" stroke-width="1" fill="none" fill-rule="evenodd">
        <g id="Home" transform="translate(-1013.000000, -2027.000000)" fill="#FFFFFF">
            <g id="INFORMATION" transform="translate(3.000000, 2029.000000)">
                <g id="Safer_Icon" filter="url(#filter-1)" transform="translate(1001.000000, 0.000000)">
                    <g id="Group-4" transform="translate(13.000000, 0.000000)">
                        <path d="M137.981098,189.331856 C118.98687,189.331856 103.589005,173.933991 103.589005,154.939763 C103.589005,135.945534 118.98687,120.547669 137.981098,120.547669 C156.975327,120.547669 172.373192,135.945534 172.373192,154.939763 C172.373192,173.933991 156.975327,189.331856 137.981098,189.331856 Z M123.768048,157.585212 L132.831857,166.679656 C133.084845,166.896843 133.269038,167.037718 133.384436,167.10228 C133.650822,167.251316 133.934417,167.332055 134.090606,167.332055 C134.253991,167.332055 134.461936,167.265365 134.742615,167.10228 C134.850607,167.039532 135.024892,166.898658 135.265468,166.679656 L152.443744,145.298918 C152.676098,144.971533 152.818343,144.743439 152.87048,144.614636 C153.02781,144.225959 153.043138,143.92719 153.028447,143.777773 C152.969849,143.181781 152.651383,142.776863 152.443744,142.576347 C152.296788,142.434433 151.690035,142.142318 151.195368,142.102901 C151.070114,142.09292 150.695487,142.096912 150.176251,142.321548 C150.011728,142.392725 149.794281,142.578649 149.52391,142.879322 L134.688653,161.334994 C134.363542,161.651523 134.119838,161.809788 133.957542,161.809788 C133.795247,161.809788 133.553643,161.651523 133.232731,161.334994 L126.947612,154.891521 C126.69579,154.668366 126.519552,154.527389 126.418898,154.468591 C125.975189,154.209394 125.690977,154.186446 125.503839,154.166 C124.641437,154.071777 124.019555,154.477274 123.768048,154.717324 C123.518675,154.955337 123.143557,155.538896 123.238494,156.350124 C123.256946,156.507793 123.285449,156.769518 123.429059,157.070077 C123.480618,157.177985 123.593614,157.349697 123.768048,157.585212 Z" id="Combined-Shape"></path>
                        <path d="M137.265026,0 L274.530053,79.25 L274.530053,237.75 L137.265026,317 L3.90798505e-14,237.75 L-4.97379915e-14,79.25 L137.265026,0 Z M126.939065,86.2713642 C124.22549,88.1204784 121.251103,90.8980373 114.534922,94.3392759 C111.029559,96.1353544 105.67966,98.121915 103.215876,98.6094257 C94.9930134,100.23649 93.4591974,100.025824 86.3534264,100.025824 C79.2476554,100.025824 76.5928412,102.371741 75.9460839,103.042782 C74.8082496,104.223339 74.2149123,105.746091 74.0088351,106.717558 C73.6856212,108.241218 73.6856212,110.424325 74.0088351,113.266881 L77.3305474,172.053108 C77.7998108,175.332983 78.1618076,177.524515 78.4165378,178.627705 C79.3273934,182.572455 80.6217342,185.717794 81.7899374,188.09028 C82.7556627,190.051556 83.8310752,192.612698 85.9145963,195.59946 C86.9106677,197.027345 88.8419204,199.403805 91.7083546,202.72884 C94.7893008,205.455859 96.9827124,207.356165 98.2885894,208.429756 C101.594997,211.148029 103.583842,212.569875 105.434338,213.990958 C109.411605,217.045288 114.440651,220.114921 117.158583,222.190938 C122.897117,226.574159 129.551626,231.490487 137.122111,236.939922 L176.914653,208.429756 C180.175922,205.813233 182.264554,204.040566 183.180547,203.111754 C184.198259,202.079801 185.967209,199.947578 187.747072,197.572352 C189.960695,194.618271 192.191197,191.288312 193.014363,189.23165 C193.71049,187.492394 195.052296,184.52415 196.082493,180.348405 C196.423631,178.965651 196.817002,176.594535 197.262604,173.235059 L200.829455,108.95996 C200.684637,106.089409 200.215378,104.229068 199.421678,103.378937 C199.043466,102.973836 198.581252,102.377192 198.157106,102.078029 C195.667848,100.322281 192.447867,100.495422 191.712919,100.459728 C189.264915,100.340836 185.32472,100.130262 182.868511,100.025824 C180.608321,99.9297216 177.564021,99.7570532 175.549195,99.536745 C173.056089,99.2641399 170.281321,98.3766624 168.397547,97.7944332 C164.477705,96.5829042 161.527348,95.097312 158.664975,93.4481622 C156.264524,92.0651479 153.200859,90.0238353 149.473979,87.3242244 L148.956341,86.9245749 L148.956344,86.9245712 C142.532102,81.9646455 133.646051,81.7010148 126.939065,86.2713642 L126.939065,86.2713642 Z" id="Combined-Shape"></path>
                    </g>
                </g>
            </g>
        </g>
    </g>
</svg>