<?xml version="1.0" encoding="UTF-8"?>
<svg width="252px" height="252px" viewBox="0 0 252 252" version="1.1" xmlns="http://www.w3.org/2000/svg" xmlns:xlink="http://www.w3.org/1999/xlink">
    <!-- Generator: Sketch 51.1 (57501) - http://www.bohemiancoding.com/sketch -->
    <title>Safer_Icon</title>
    <desc>Created with Sketch.</desc>
    <defs>
        <linearGradient x1="19.4159565%" y1="15.7460863%" x2="100%" y2="103.045108%" id="linearGradient-1">
            <stop stop-color="#F5A623" offset="0%"></stop>
            <stop stop-color="#F7771C" offset="100%"></stop>
        </linearGradient>
    </defs>
    <g id="Page-1" stroke="none" stroke-width="1" fill="none" fill-rule="evenodd">
        <g id="Desktop-HD-Copy-14" transform="translate(-219.000000, -2044.000000)" fill="url(#linearGradient-1)">
            <g id="Group-17" transform="translate(-3.000000, 1752.000000)">
                <g id="Safer_Icon" transform="translate(222.000000, 292.000000)">
                    <path d="M125.617728,153.917555 C107.446821,153.917555 92.7163915,139.13637 92.7163915,120.902853 C92.7163915,102.669336 107.446821,87.8881502 125.617728,87.8881502 C143.788634,87.8881502 158.519064,102.669336 158.519064,120.902853 C158.519064,139.13637 143.788634,153.917555 125.617728,153.917555 Z M112.020756,123.442353 L120.691685,132.172567 C120.933707,132.381057 121.109916,132.51629 121.220312,132.578266 C121.475152,132.721332 121.746454,132.798838 121.895873,132.798838 C122.052176,132.798838 122.251107,132.73482 122.519619,132.578266 C122.622931,132.518031 122.789661,132.382798 123.019809,132.172567 L139.453477,111.64812 C139.675759,111.333847 139.811839,111.114888 139.861716,110.991243 C140.012226,110.618133 140.026889,110.331329 140.012835,110.187897 C139.956777,109.615774 139.652116,109.227073 139.453477,109.034588 C139.312891,108.898357 138.732438,108.617941 138.259213,108.580102 C138.139388,108.570521 137.781,108.574354 137.28427,108.789993 C137.126879,108.858319 136.918857,109.036798 136.660206,109.325428 L122.467997,127.041957 C122.156978,127.345809 121.923837,127.497736 121.768577,127.497736 C121.613316,127.497736 121.382185,127.345809 121.075183,127.041957 L115.062499,120.856543 C114.821592,120.642325 114.652993,120.506995 114.556702,120.450552 C114.132226,120.201735 113.860333,120.179706 113.681307,120.160079 C112.856286,120.06963 112.261361,120.458887 112.020756,120.689322 C111.782192,120.917803 111.423334,121.477991 111.514155,122.25673 C111.531807,122.408084 111.559075,122.659327 111.69646,122.947849 C111.745784,123.051435 111.853883,123.21627 112.020756,123.442353 Z" id="Combined-Shape"></path>
                    <path d="M126,252 C56.4121215,252 0,195.587878 0,126 C0,56.4121215 56.4121215,0 126,0 C195.587878,0 252,56.4121215 252,126 C252,195.587878 195.587878,252 126,252 Z M115.637683,56.551321 C113.015013,58.5225594 110.140268,61.4835611 103.649077,65.1520751 C100.261143,67.066775 95.0904636,69.1845373 92.7092162,69.7042455 C84.7618177,71.4387686 83.2793842,71.2141897 76.4116549,71.2141897 C69.5439256,71.2141897 66.9780472,73.7150415 66.352956,74.4304017 C65.2532389,75.6889283 64.6797784,77.3122489 64.4806046,78.3478764 C64.1682183,79.9721658 64.1682183,82.299456 64.4806046,85.329747 L67.6910403,147.998491 C68.1445835,151.494983 68.4944535,153.831254 68.7406503,155.007304 C69.6209924,159.212584 70.8719732,162.565656 72.0010418,165.094832 C72.9344155,167.18564 73.9738019,169.915932 75.9875255,173.099953 C76.9502287,174.622142 78.8167849,177.155555 81.5871942,180.700191 C84.5649294,183.607315 86.6848622,185.633125 87.9469926,186.777621 C91.1426359,189.675422 93.0648559,191.191174 94.8533603,192.706111 C98.6973895,195.962163 103.557964,199.23453 106.184845,201.447657 C111.73114,206.120365 118.162725,211.36139 125.4796,217.170732 L163.9391,186.777621 C167.091118,183.988291 169.109781,182.098548 169.995088,181.108394 C170.978707,180.008286 172.688399,177.735241 174.408636,175.203144 C176.548103,172.053962 178.703884,168.504077 179.499474,166.311583 C180.172281,164.457458 181.469137,161.293178 182.464822,156.841647 C182.794532,155.367569 183.174725,152.839855 183.6054,149.258503 L187.052762,80.7383769 C186.912796,77.6782413 186.459257,75.695035 185.692145,74.788758 C185.326604,74.3569016 184.879873,73.7208527 184.469936,73.4019317 C182.064068,71.5302256 178.951956,71.7148022 178.241628,71.6767507 C175.875632,71.5500064 172.067432,71.3255246 169.693506,71.2141897 C167.509032,71.1117399 164.566715,70.9276677 162.619385,70.6928093 C160.209798,70.4022001 157.527984,69.4561095 155.707316,68.8354271 C151.918787,67.5438831 149.067267,65.9601755 146.300783,64.2021082 C143.980747,62.7277531 141.019713,60.5516227 137.417683,57.673717 L136.85843,57.19746 C130.807038,52.0442015 121.991392,51.7757787 115.637683,56.551321 Z" id="Combined-Shape"></path>
                    <path d="M126,252 C56.4121215,252 0,195.587878 0,126 C0,56.4121215 56.4121215,0 126,0 C195.587878,0 252,56.4121215 252,126 C252,195.587878 195.587878,252 126,252 Z M115.637683,55.8567852 C113.015013,57.6583429 110.140268,60.3644669 103.649077,63.7172018 C100.261143,65.4670878 95.0904636,67.4025569 92.7092162,67.8775296 C84.7618177,69.462748 83.2793842,69.2575005 76.4116549,69.2575005 C69.5439256,69.2575005 66.9780472,71.5430835 66.352956,72.1968667 C65.2532389,73.3470616 64.6797784,74.8306497 64.4806046,75.7771323 C64.1682183,77.2616057 64.1682183,79.388567 64.4806046,82.1580159 L67.6910403,139.432347 C68.1445835,142.627867 68.4944535,144.763036 68.7406503,145.837854 C69.6209924,149.681151 70.8719732,152.745597 72.0010418,155.057065 C72.9344155,156.967901 73.9738019,159.463174 75.9875255,162.37312 C76.9502287,163.764282 78.8167849,166.079623 81.5871942,169.319143 C84.5649294,171.976027 86.6848622,173.82746 87.9469926,174.87344 C91.1426359,177.521802 93.0648559,178.907081 94.8533603,180.291615 C98.6973895,183.267392 103.557964,186.25808 106.184845,188.280704 C111.73114,192.551195 118.162725,197.341082 125.4796,202.650366 L163.9391,174.87344 C167.091118,172.32421 169.109781,170.597133 169.995088,169.692209 C170.978707,168.686797 172.688399,166.609411 174.408636,164.295272 C176.548103,161.417166 178.703884,158.172849 179.499474,156.169081 C180.172281,154.474556 181.469137,151.582651 182.464822,147.5143 C182.794532,146.167109 183.174725,143.856975 183.6054,140.583899 L187.052762,77.9618628 C186.912796,75.1651381 186.459257,73.3526427 185.692145,72.5243764 C185.326604,72.1296934 184.879873,71.5483944 184.469936,71.2569256 C182.064068,69.5463326 178.951956,69.7150212 178.241628,69.680245 C175.875632,69.5644107 172.067432,69.3592519 169.693506,69.2575005 C167.509032,69.1638694 164.566715,68.9956418 162.619385,68.7809995 C160.209798,68.5154054 157.527984,67.6507526 155.707316,67.0834975 C151.918787,65.9031273 149.067267,64.4557423 146.300783,62.8490064 C143.980747,61.5015611 141.019713,59.5127481 137.417683,56.8825673 L136.912631,56.4895211 C130.715945,51.6667664 122.110029,51.4108187 115.637683,55.8567852 Z" id="Combined-Shape-Copy"></path>
                </g>
            </g>
        </g>
    </g>
</svg>