<?xml version="1.0" encoding="UTF-8"?>
<svg width="302px" height="351px" viewBox="0 0 302 351" version="1.1" xmlns="http://www.w3.org/2000/svg" xmlns:xlink="http://www.w3.org/1999/xlink">
    <!-- Generator: Sketch 49.1 (51147) - http://www.bohemiancoding.com/sketch -->
    <title>Cheaper_Icon</title>
    <desc>Created with Sketch.</desc>
    <defs>
        <linearGradient x1="0%" y1="0%" x2="100%" y2="100%" id="linearGradient-1">
            <stop stop-color="#F5A623" offset="0%"></stop>
            <stop stop-color="#F7771C" offset="100%"></stop>
        </linearGradient>
        <path d="M120.452921,161.627608 C123.703533,160.463815 125.996573,159.683883 127.332043,159.287812 C129.918667,158.520677 132.08233,158.131135 133.55162,157.814101 C140.291849,156.359741 145.682111,156.181131 149.116941,155.98227 C154.544702,155.668028 162.78046,156.519823 173.824214,158.537656 L172.380393,164.25301 C167.577683,163.280387 164.070876,162.666706 161.85997,162.411967 C155.339597,161.660696 149.733663,161.70865 146.277529,161.890748 C142.86717,162.070435 138.095439,162.567378 132.37941,163.934558 C130.364076,164.416593 127.088144,165.397877 122.551612,166.878412 L120.452921,161.627608 Z M215.224142,182.492317 C215.719605,182.567759 215.932004,182.647315 216.16523,182.806458 C216.372634,182.947982 216.613083,183.152645 216.830374,183.470254 C217.233602,184.059644 217.554721,184.759345 217.739212,185.455425 C217.999168,186.436229 218.019787,187.530093 218.019787,187.949848 C218.019787,188.339289 217.567464,190.407807 217.225506,190.938373 C217.028732,191.24368 216.783458,191.950126 216.27157,192.456109 C216.055761,192.669429 215.618645,192.957255 214.960222,193.319587 C214.819542,193.354202 214.724092,193.37392 214.673871,193.378742 C214.439047,193.401285 214.321391,193.378621 214.250934,193.378742 C214.176718,193.378869 213.929339,193.372061 213.737709,193.319587 C213.539336,193.265266 213.233005,193.088955 213.158491,193.055724 C212.669928,192.83784 212.40667,192.361832 212.253058,192.066529 C212.228651,192.019609 211.70562,191.377219 211.510278,190.563792 C211.400308,190.105864 211.302659,189.591785 211.268876,189.127687 C211.228068,188.567082 211.331822,187.327713 211.397862,186.9715 C211.437086,186.759932 211.701811,185.54509 211.915748,185.146412 C212.02463,184.943506 212.116606,184.625297 212.371351,184.256842 C212.539373,184.013821 212.924281,183.582575 213.526076,182.963105 C214.034072,182.554224 214.600094,182.397295 215.224142,182.492317 Z M146.85895,134.051643 C135.984157,134.051643 127.168395,125.147788 127.168395,114.164325 C127.168395,103.180863 135.984157,94.277008 146.85895,94.277008 C157.733743,94.277008 166.549505,103.180863 166.549505,114.164325 C166.549505,125.147788 157.733743,134.051643 146.85895,134.051643 Z M152.240868,106.209194 C152.191415,106.043549 152.055963,105.932451 151.834513,105.875899 C150.965298,105.653926 149.767632,105.406043 148.241514,105.132251 L148.241514,102.762864 L145.497243,102.762864 L145.497243,105.413428 C144.780322,105.580522 144.299832,105.712943 144.055774,105.810692 C143.811715,105.908441 143.43214,106.120486 142.917048,106.446829 C141.907297,107.330517 141.29276,108.103959 141.073436,108.767155 C140.939508,109.172129 140.77458,109.722203 140.804216,110.42432 C140.816814,110.722778 140.943164,111.288569 141.183266,112.121692 C141.312037,112.391879 141.428841,112.605204 141.533677,112.761667 C141.85927,113.247598 142.208065,113.573393 142.413507,113.77215 C142.475812,113.832428 142.692946,113.991489 142.917048,114.152659 C143.186768,114.346636 143.503153,114.559853 144.055774,114.821754 C144.569235,115.065096 145.610002,115.490692 147.178075,116.09854 C147.884271,116.493585 148.31718,116.821839 148.476803,117.083301 C148.589445,117.267807 148.894741,117.842337 148.750783,118.297726 C148.588738,118.810329 147.960233,119.201671 147.817133,119.285178 C147.511343,119.463622 147.192191,119.562589 147.014771,119.603149 C146.815104,119.648796 146.109105,119.759182 145.221522,119.674141 C144.518472,119.606781 143.605224,119.355194 143.416756,119.285178 C143.078794,119.159624 142.451101,118.87934 141.533677,118.444324 L140.709026,121.617186 C141.529349,122.078105 142.205011,122.378302 142.73601,122.517777 C143.26701,122.657251 144.124818,122.759843 145.309434,122.825551 L145.309434,125.542453 L148.082475,125.542453 L148.082475,122.654255 C148.642001,122.560945 149.032862,122.475039 149.255057,122.396536 C150.179413,122.069955 150.733112,121.690496 151.00842,121.503804 C151.382995,121.249799 151.843646,120.721126 152.390373,119.917786 C152.659035,119.321244 152.824695,118.901262 152.887353,118.657843 C153.038062,118.07235 152.97422,117.609556 152.978411,117.264755 C152.983733,116.826874 152.933349,115.865068 152.28896,114.976261 C152.122171,114.74621 151.917655,114.386277 151.507089,114.021921 C151.365394,113.896175 150.615045,113.317294 149.727237,112.890624 C148.506337,112.303874 146.897227,111.742723 146.666279,111.637 C146.400354,111.515266 146.066027,111.3144 145.663299,111.034402 C145.374508,110.671999 145.19788,110.424878 145.133414,110.293037 C145.060142,110.143184 145.050451,109.995814 145.043519,109.899406 C145.040412,109.856193 145.071712,109.63932 145.16114,109.420963 C145.232673,109.2463 145.364782,109.069804 145.4547,108.968363 C145.560036,108.849529 145.771144,108.712602 145.991913,108.615098 C146.195195,108.525317 146.451496,108.47201 146.547246,108.457055 C146.803998,108.416954 147.293114,108.371076 147.592998,108.375482 C147.971294,108.38104 148.416125,108.411986 148.60494,108.424268 C149.226602,108.464702 150.167338,108.767154 151.427149,109.331622 L152.240868,106.209194 Z" id="path-2"></path>
        <filter x="-2.0%" y="-2.0%" width="104.1%" height="104.0%" filterUnits="objectBoundingBox" id="filter-3">
            <feGaussianBlur stdDeviation="1.5" in="SourceAlpha" result="shadowBlurInner1"></feGaussianBlur>
            <feOffset dx="0" dy="1" in="shadowBlurInner1" result="shadowOffsetInner1"></feOffset>
            <feComposite in="shadowOffsetInner1" in2="SourceAlpha" operator="arithmetic" k2="-1" k3="1" result="shadowInnerInner1"></feComposite>
            <feColorMatrix values="0 0 0 0 0   0 0 0 0 0   0 0 0 0 0  0 0 0 0.5 0" type="matrix" in="shadowInnerInner1"></feColorMatrix>
        </filter>
        <path d="M150.566151,0 L301.132303,87.6292702 L301.132303,262.887811 L150.566151,350.517081 L7.10542736e-15,262.887811 L-8.8817842e-14,87.6292702 L150.566151,0 Z M78.0061554,196.923081 C78.0812808,201.948162 78.5693575,205.517156 79.4703856,207.630062 C80.0821153,209.064565 80.8146196,212.569293 83.6771491,217.046863 C84.5796448,218.458547 86.4234063,220.821552 89.2084336,224.135878 C91.6911915,227.858796 93.4821291,230.641966 94.5812465,232.485389 C95.2728451,233.645327 97.2058889,236.621615 100.082833,241.621436 C101.212977,243.585504 103.119711,247.365501 105.803036,252.961425 L122.380543,252.961425 L123.505817,243.967837 C133.727111,246.406326 141.735449,247.719612 147.530831,247.907696 C151.295128,248.029862 156.899012,248.244801 164.352431,247.399744 C167.033503,247.095767 171.593778,246.306881 178.033255,245.033083 L179.175581,252.961425 L195.702893,252.961425 C196.29944,250.980526 196.711351,249.597463 196.938627,248.812237 C197.867936,245.601516 198.626627,243.755904 198.882669,243.058933 C199.63107,241.021712 200.898451,238.410767 202.684811,235.226096 C207.662204,232.151622 211.204777,229.656191 213.31253,227.739802 C215.420284,225.823413 217.849364,223.06343 220.599772,219.459854 C221.993208,219.828318 222.986048,220.040801 223.578292,220.097303 C225.514605,220.282031 226.946438,219.990126 227.845881,219.667761 C231.551024,218.339819 233.843981,214.456862 234.35744,213.454377 C234.896162,212.402568 235.660259,210.656478 236.238326,208.193514 C236.438017,207.342694 236.674268,205.873253 236.947078,203.785191 C237.207779,200.735236 237.328886,198.604616 237.3104,197.393332 C237.247101,193.245652 236.549113,191.262587 235.704135,190.004363 C234.977008,188.921624 233.344612,187.896505 231.457586,187.888948 C230.613289,187.885567 229.069944,188.308942 226.827552,189.159075 C225.960497,186.434871 225.287102,184.518933 224.807365,183.411258 C223.05238,179.35913 221.217389,176.561663 219.698971,174.492446 C219.464006,174.172248 217.585784,171.6304 213.31253,167.788187 C212.094553,166.693066 209.773219,164.882045 206.348529,162.355123 C207.727642,159.691941 208.688896,157.851795 209.232292,156.834684 C209.724294,155.913769 210.302274,154.794679 210.839209,153.777868 C211.217489,153.061507 211.618229,152.375151 211.767449,151.935135 C211.997716,151.256133 212.221489,150.919082 212.704455,149.814749 C213.155794,148.782733 213.434487,147.686516 213.613951,146.643946 C213.762104,145.783272 213.661631,145.018697 213.31253,144.350224 C213.09473,144.066193 212.892038,143.868671 212.704455,143.75766 C212.285993,143.510014 211.592308,143.32011 211.393695,143.2704 C210.951537,143.159733 209.561031,143.024184 209.232292,143.01644 C208.953335,143.009868 208.273437,142.944232 207.646903,142.944686 C206.809326,142.945294 206.011301,143.013767 205.857568,143.01644 C205.174372,143.028316 204.545688,143.102863 204.088848,143.160824 C203.630301,143.219002 203.343924,143.260808 202.83232,143.387091 C201.647803,143.679473 198.166823,144.048983 194.520874,145.70217 C193.764629,146.045075 192.235042,146.638524 191.0512,147.316478 C190.361837,147.711257 189.230969,148.277684 187.899648,149.275423 C187.280147,149.739699 186.234692,150.62627 184.763283,151.935135 C177.440219,150.021477 172.202665,148.839062 169.050621,148.387889 C159.046523,146.955937 152.115057,147.282728 151.472061,147.316478 C149.956205,147.396042 144.924005,147.404122 140.326838,147.927428 C138.241291,148.164831 134.355537,148.701659 130.096587,149.663948 C125.507244,150.700888 120.068479,152.522952 116.247862,153.777868 C113.848931,154.565819 111.746128,155.644513 109.202327,156.834684 C107.803618,157.489099 107.099418,157.68654 105.668018,158.512995 C105.368735,158.685794 104.840623,158.979572 104.333071,159.257763 C104.068188,159.402947 93.7809918,165.346433 88.6667416,171.965718 C87.301224,173.733083 84.6455984,176.263249 82.7252148,179.924338 C81.9107011,181.477157 80.6788002,183.828523 79.4703856,187.362982 C79.2174449,188.102802 78.8920975,189.374296 78.4943434,191.177466 C77.4099351,190.90546 76.714469,190.691178 76.4079452,190.534621 C76.1708962,190.413548 73.8595763,188.962197 72.9774881,187.164315 C72.8372371,186.878454 71.8941793,185.614489 72.3049008,183.322596 C72.3512595,183.063907 72.4526468,182.695993 72.7633817,182.219925 C72.8680418,182.059579 73.0844927,181.791494 73.4127345,181.415672 L73.4127345,182.348524 C73.2157274,183.8129 72.8676791,184.828779 72.3685895,185.39616 C72.0348131,185.775608 70.5427212,188.12345 68.1995365,190.229532 C67.4258465,190.924934 66.0952471,192.147938 64.2077381,193.898545 C63.7405904,194.578734 63.4800362,195.076228 63.4260755,195.391026 C63.2331641,196.516439 63.6830724,197.376912 63.9308779,197.701045 C64.1631544,198.004865 64.811684,198.643114 65.807284,198.734891 C66.0485591,198.757133 66.4305047,198.871543 66.9316086,198.734891 C67.0703516,198.697056 67.297289,198.569394 67.6124207,198.351906 L71.9682025,194.268604 C72.9095125,193.252109 73.5893214,192.52731 74.0076292,192.094207 C75.0027882,191.063851 75.8865383,190.243311 76.4079452,189.37512 C76.7219597,188.852257 77.2961253,188.12659 77.7375302,187.164315 C78.1035783,186.36632 78.823589,184.64858 79.008086,181.992297 C79.0539143,181.332488 78.9618087,180.210653 78.7317692,178.626792 C78.4353424,177.795062 78.1934711,177.229495 78.0061554,176.930091 C77.6062287,176.290851 77.0650088,175.903857 76.7648616,175.66869 C75.4619688,174.647865 73.3737454,174.950215 72.9774881,175.139672 C72.5090061,175.363661 71.8617035,175.509606 70.9270937,176.182538 C70.3560619,176.593689 67.3434382,178.694891 66.7076813,182.881691 C66.5805802,183.71872 66.4911187,185.049078 66.9316086,186.813719 C67.097958,187.480129 67.5206007,188.618734 68.1995365,190.229532 C69.8427427,192.342086 71.2998661,193.822749 72.5709069,194.671522 C73.8419476,195.520295 75.6536971,196.270814 78.0061554,196.923081 Z M146.6894,141.427727 C161.502509,141.427727 173.510907,129.32265 173.510907,114.390282 C173.510907,99.4579136 161.502509,87.3528372 146.6894,87.3528372 C131.876291,87.3528372 119.867893,99.4579136 119.867893,114.390282 C119.867893,129.32265 131.876291,141.427727 146.6894,141.427727 Z" id="path-4"></path>
        <filter x="-0.7%" y="-0.6%" width="101.3%" height="101.1%" filterUnits="objectBoundingBox" id="filter-5">
            <feGaussianBlur stdDeviation="1.5" in="SourceAlpha" result="shadowBlurInner1"></feGaussianBlur>
            <feOffset dx="0" dy="1" in="shadowBlurInner1" result="shadowOffsetInner1"></feOffset>
            <feComposite in="shadowOffsetInner1" in2="SourceAlpha" operator="arithmetic" k2="-1" k3="1" result="shadowInnerInner1"></feComposite>
            <feColorMatrix values="0 0 0 0 0   0 0 0 0 0   0 0 0 0 0  0 0 0 0.5 0" type="matrix" in="shadowInnerInner1"></feColorMatrix>
        </filter>
    </defs>
    <g id="Page-1" stroke="none" stroke-width="1" fill="none" fill-rule="evenodd">
        <g id="Desktop-HD-Copy-2" transform="translate(-1295.000000, -1600.000000)">
            <g id="Cheaper_Icon" transform="translate(1295.000000, 1600.000000)">
                <g id="Combined-Shape">
                    <use fill="url(#linearGradient-1)" fill-rule="evenodd" xlink:href="#path-2"></use>
                    <use fill="black" fill-opacity="1" filter="url(#filter-3)" xlink:href="#path-2"></use>
                </g>
                <g id="Polygone_Cheaper">
                    <use fill="url(#linearGradient-1)" fill-rule="evenodd" xlink:href="#path-4"></use>
                    <use fill="black" fill-opacity="1" filter="url(#filter-5)" xlink:href="#path-4"></use>
                </g>
            </g>
        </g>
    </g>
</svg>