<?xml version="1.0" encoding="UTF-8"?>
<svg width="283px" height="325px" viewBox="0 0 283 325" version="1.1" xmlns="http://www.w3.org/2000/svg" xmlns:xlink="http://www.w3.org/1999/xlink">
    <!-- Generator: Sketch 47.1 (45422) - http://www.bohemiancoding.com/sketch -->
    <title>Group 3</title>
    <desc>Created with Sketch.</desc>
    <defs>
        <path d="M110,145.99578 C112.873014,144.977353 114.899691,144.294839 116.08003,143.94824 C118.366187,143.276925 120.278514,142.936039 121.577129,142.658605 C127.5344,141.385904 132.298519,141.229604 135.334352,141.055582 C140.131614,140.78059 147.41069,141.525991 157.171581,143.291783 L155.895476,148.293252 C151.650659,147.442116 148.551209,146.905088 146.597126,146.682168 C140.834172,146.024735 135.879435,146.066699 132.824772,146.226052 C129.810566,146.383295 125.593129,146.818167 120.541085,148.014577 C118.759856,148.436403 115.864462,149.295118 111.854903,150.590724 L110,145.99578 Z M189.503978,160.02352 C189.941887,160.08954 190.129613,160.159159 190.335747,160.298424 C190.519059,160.42227 190.731577,160.60137 190.923627,160.879307 C191.280015,161.395079 191.563832,162.007382 191.726893,162.616517 C191.956651,163.474813 191.974876,164.432046 191.974876,164.799371 C191.974876,165.140168 191.575095,166.950315 191.27286,167.41461 C191.098943,167.681782 190.882161,168.299988 190.429735,168.742771 C190.238994,168.929446 189.852654,169.18132 189.270715,169.498394 C189.146377,169.528686 189.062014,169.545941 189.017628,169.55016 C188.810081,169.569888 188.706092,169.550054 188.64382,169.55016 C188.578225,169.550272 188.359582,169.544314 188.190212,169.498394 C188.014882,169.450859 187.744135,169.29657 187.678277,169.26749 C187.246466,169.076821 187.013789,168.660269 186.87802,168.401851 C186.856449,168.360792 186.394174,167.798641 186.221524,167.086816 C186.124328,166.686086 186.038022,166.236219 186.008163,165.83009 C185.972095,165.339508 186.063797,164.254944 186.122166,163.943225 C186.156833,163.758083 186.390807,162.694982 186.579893,162.346102 C186.676127,162.168541 186.757419,161.890078 186.982573,161.567645 C187.131077,161.354979 187.471273,160.977599 188.003162,160.435504 C188.452149,160.077695 188.952421,159.940368 189.503978,160.02352 Z M134.403262,120.806525 C124.791706,120.806525 117,113.014819 117,103.403262 C117,93.791706 124.791706,86 134.403262,86 C144.014819,86 151.806525,93.791706 151.806525,103.403262 C151.806525,113.014819 144.014819,120.806525 134.403262,120.806525 Z M139.160007,96.4417785 C139.116298,96.2968238 138.99658,96.1996023 138.800855,96.150114 C138.032609,95.955867 136.974066,95.7389465 135.625225,95.4993523 L135.625225,93.4259175 L133.199733,93.4259175 L133.199733,95.7454085 C132.566092,95.8916317 132.141417,96.0075129 131.925708,96.093052 C131.71,96.1785911 131.374517,96.3641507 130.91926,96.6497309 C130.026803,97.4230405 129.483652,98.0998746 129.289805,98.6802332 C129.171434,99.0346236 129.025665,99.5159902 129.051858,100.130408 C129.062992,100.391586 129.174665,100.886706 129.386877,101.615767 C129.500689,101.852206 129.603925,102.038885 129.696584,102.175805 C129.984355,102.60104 130.292634,102.886141 130.474211,103.060072 C130.529279,103.112821 130.72119,103.252014 130.91926,103.393053 C131.157648,103.562801 131.437281,103.749386 131.925708,103.978574 C132.379525,104.191521 133.299395,104.563957 134.685317,105.095881 C135.30948,105.441582 135.692102,105.728835 135.833183,105.957639 C135.932739,106.119099 136.202572,106.621866 136.075337,107.020374 C135.932115,107.46895 135.376619,107.811411 135.250141,107.884487 C134.979872,108.040642 134.697793,108.127248 134.540983,108.162742 C134.36451,108.202687 133.740521,108.299285 132.956041,108.224866 C132.334659,108.16592 131.527495,107.945758 131.36092,107.884487 C131.062217,107.774616 130.507438,107.529341 129.696584,107.148661 L128.967725,109.925213 C129.692758,110.328559 130.289934,110.59126 130.759251,110.713313 C131.228569,110.835367 131.986732,110.925144 133.033741,110.982644 L133.033741,113.360188 L135.48466,113.360188 L135.48466,110.832745 C135.979191,110.75109 136.324648,110.675913 136.521033,110.607216 C137.338014,110.321427 137.827394,109.989365 138.070722,109.825993 C138.401786,109.603714 138.808927,109.141076 139.292145,108.438078 C139.529599,107.916048 139.676015,107.548525 139.731394,107.33551 C139.864597,106.823149 139.808171,106.418162 139.811875,106.116428 C139.816579,105.733241 139.772047,104.891571 139.202512,104.113782 C139.055097,103.912465 138.874339,103.59749 138.511464,103.278645 C138.386229,103.168605 137.723043,102.66203 136.938364,102.288654 C135.859286,101.775193 134.437093,101.284133 134.232973,101.191616 C133.997938,101.085087 133.702447,100.909311 133.3465,100.664286 C133.091256,100.347151 132.935145,100.130896 132.878168,100.015523 C132.813407,99.8843872 132.804842,99.7554252 132.798715,99.6710593 C132.795969,99.6332438 132.823633,99.4434593 132.902673,99.252377 C132.965897,99.0995298 133.08266,98.9450796 133.162133,98.8563098 C133.255233,98.7523183 133.441818,98.6324946 133.636942,98.5471694 C133.816611,98.468603 134.043139,98.4219543 134.127767,98.4088673 C134.354693,98.3737748 134.786993,98.3336277 135.052042,98.3374833 C135.386395,98.342347 135.779553,98.3694278 135.946435,98.3801749 C136.495883,98.4155591 137.327341,98.6802323 138.44081,99.1741946 L139.160007,96.4417785 Z" id="path-1"></path>
        <filter x="-8.5%" y="-6.0%" width="117.1%" height="116.8%" filterUnits="objectBoundingBox" id="filter-2">
            <feOffset dx="0" dy="2" in="SourceAlpha" result="shadowOffsetOuter1"></feOffset>
            <feGaussianBlur stdDeviation="2" in="shadowOffsetOuter1" result="shadowBlurOuter1"></feGaussianBlur>
            <feColorMatrix values="0 0 0 0 0   0 0 0 0 0   0 0 0 0 0  0 0 0 0.5 0" type="matrix" in="shadowBlurOuter1"></feColorMatrix>
        </filter>
        <path d="M137.265026,0 L274.530053,79.25 L274.530053,237.75 L137.265026,317 L3.90798505e-14,237.75 L-4.97379915e-14,79.25 L137.265026,0 Z M71.115034,178.092938 C71.1835228,182.637512 71.6284825,185.865232 72.4499131,187.776098 C73.0076021,189.073431 73.6753965,192.243031 76.2850481,196.292447 C77.1078166,197.569143 78.7886988,199.706193 81.3276948,202.703597 C83.591124,206.070523 85.2238489,208.587562 86.2258694,210.254713 C86.8563717,211.303736 88.618649,213.995426 91.2414418,218.517155 C92.2717477,220.293415 94.0100396,223.711961 96.4563176,228.772793 L111.569356,228.772793 L112.595222,220.639189 C121.913559,222.844505 129.214435,224.032212 134.497848,224.202311 C137.929605,224.312796 143.038438,224.507182 149.833416,223.74293 C152.27764,223.468021 156.435057,222.754569 162.305666,221.602574 L163.347078,228.772793 L178.414355,228.772793 C178.958203,226.981311 179.333725,225.7305 179.540923,225.020358 C180.388137,222.116652 181.079804,220.447521 181.313227,219.817196 C181.995514,217.974778 183.150933,215.613495 184.779485,212.733349 C189.317172,209.952862 192.546791,207.696048 194.468344,205.962908 C196.389897,204.229767 198.604391,201.733699 201.111825,198.474703 C202.382164,198.807935 203.287296,199.0001 203.827221,199.051198 C205.592478,199.218262 206.897822,198.95427 207.717808,198.66273 C211.095635,197.461769 213.186031,193.950107 213.654131,193.043481 C214.145261,192.092248 214.841858,190.513122 215.368858,188.285671 C215.550908,187.516209 215.766288,186.187278 216.014999,184.29888 C216.252669,181.540567 216.363077,179.613681 216.346224,178.518223 C216.288517,174.767152 215.65219,172.973711 214.881858,171.8358 C214.218965,170.856595 212.730776,169.929499 211.010452,169.922665 C210.240741,169.919607 208.833736,170.302499 206.789438,171.07134 C205.99898,168.60763 205.385073,166.874897 204.947717,165.87314 C203.347768,162.208484 201.674882,159.678516 200.290602,157.807161 C200.076394,157.517581 198.364095,155.218789 194.468344,151.743975 C193.357964,150.753572 191.241698,149.115723 188.119548,146.83043 C189.376829,144.421907 190.253165,142.757719 190.748557,141.837866 C191.197095,141.005011 191.724016,139.99293 192.213517,139.073349 C192.55838,138.425488 192.923719,137.804762 193.059757,137.406821 C193.269681,136.792747 193.473686,136.487925 193.913987,135.48919 C194.325454,134.555858 194.579527,133.564463 194.743137,132.621585 C194.878202,131.84321 194.786605,131.151746 194.468344,130.547193 C194.269784,130.290321 194.084999,130.111687 193.913987,130.011291 C193.532492,129.787325 192.900087,129.615581 192.71902,129.570624 C192.315922,129.470539 191.048255,129.347951 190.748557,129.340948 C190.494243,129.335004 189.874408,129.275645 189.303223,129.276056 C188.539638,129.276605 187.812111,129.338531 187.671958,129.340948 C187.049117,129.351688 186.475971,129.419107 186.059489,129.471526 C185.64145,129.524141 185.380372,129.561949 184.913963,129.676156 C183.834088,129.940581 180.66062,130.274757 177.336756,131.769863 C176.647318,132.079979 175.252856,132.616681 174.173596,133.229808 C173.545132,133.586838 172.514165,134.099102 171.300455,135.001435 C170.73568,135.421316 169.782582,136.223112 168.441158,137.406821 C161.765019,135.676151 156.990154,134.6068 154.116565,134.19877 C144.996235,132.903743 138.677101,133.199286 138.090908,133.229808 C136.708963,133.301765 132.121312,133.309072 127.930262,133.782338 C126.028953,133.99704 122.48647,134.482536 118.603759,135.352809 C114.419842,136.290595 109.461541,137.93843 105.978441,139.073349 C103.791432,139.785954 101.874393,140.761502 99.5553129,141.837866 C98.280167,142.429705 97.6381766,142.608266 96.3332271,143.355694 C96.0603828,143.51197 95.5789247,143.777656 95.1162104,144.029246 C94.8747275,144.160547 85.4963098,149.535706 80.8338563,155.522043 C79.5889695,157.12041 77.1679437,159.408636 75.4172083,162.719645 C74.6746493,164.123981 73.5515754,166.250505 72.4499131,169.446993 C72.2193174,170.11607 71.9227114,171.265982 71.5600951,172.896729 C70.5714843,172.650733 69.9374562,172.456941 69.6580109,172.315354 C69.441903,172.205858 67.3347668,170.893288 66.530603,169.267323 C66.4027419,169.008796 65.5429945,167.865694 65.9174326,165.792956 C65.9596959,165.559003 66.0521265,165.22627 66.3354108,164.795725 C66.4308252,164.650711 66.6281547,164.408261 66.9273993,164.068375 L66.9273993,164.912026 C66.747796,166.236376 66.4304945,167.155115 65.9754949,167.668242 C65.6712046,168.011406 64.3109251,170.134743 62.1747391,172.039438 C61.4693975,172.668344 60.2563442,173.774403 58.5355792,175.357613 C58.1096996,175.972762 57.8721629,176.422684 57.8229692,176.70738 C57.6470997,177.72518 58.0572628,178.503373 58.283177,178.796511 C58.494934,179.071279 59.086172,179.648498 59.99382,179.731499 C60.2137807,179.751614 60.5619849,179.855084 61.0188209,179.731499 C61.1453073,179.697282 61.3521968,179.581827 61.6394896,179.385136 L65.6104784,175.692287 C66.4686324,174.772991 67.0883865,174.117498 67.4697407,173.72581 C68.3769865,172.793978 69.1826655,172.0519 69.6580109,171.266727 C69.9442851,170.79386 70.4677285,170.137583 70.8701395,169.267323 C71.2038506,168.545634 71.860255,166.992146 72.0284534,164.589863 C72.0702332,163.993146 71.9862642,162.978583 71.7765466,161.546173 C71.5063064,160.793975 71.2858022,160.282488 71.115034,160.011714 C70.7504372,159.433599 70.2570291,159.083611 69.983397,158.87093 C68.7956028,157.947718 66.8918546,158.221157 66.530603,158.392498 C66.103507,158.595069 65.5133876,158.727058 64.6613419,159.335643 C64.1407555,159.707479 61.3942692,161.60776 60.8146755,165.394211 C60.6988027,166.151202 60.6172443,167.354348 61.0188209,168.950251 C61.1704749,169.552938 61.555781,170.582667 62.1747391,172.039438 C63.6727832,173.949986 65.0011833,175.289065 66.1599394,176.056677 C67.3186955,176.824288 68.9703937,177.503042 71.115034,178.092938 Z M133.73075,127.90415 C147.235258,127.90415 158.182825,116.956583 158.182825,103.452075 C158.182825,89.947567 147.235258,79 133.73075,79 C120.226242,79 109.278675,89.947567 109.278675,103.452075 C109.278675,116.956583 120.226242,127.90415 133.73075,127.90415 Z" id="path-3"></path>
        <filter x="-2.5%" y="-1.6%" width="105.1%" height="104.4%" filterUnits="objectBoundingBox" id="filter-4">
            <feOffset dx="0" dy="2" in="SourceAlpha" result="shadowOffsetOuter1"></feOffset>
            <feGaussianBlur stdDeviation="2" in="shadowOffsetOuter1" result="shadowBlurOuter1"></feGaussianBlur>
            <feColorMatrix values="0 0 0 0 0   0 0 0 0 0   0 0 0 0 0  0 0 0 0.5 0" type="matrix" in="shadowBlurOuter1"></feColorMatrix>
        </filter>
    </defs>
    <g id="Website" stroke="none" stroke-width="1" fill="none" fill-rule="evenodd">
        <g id="Home" transform="translate(-579.000000, -2031.000000)">
            <g id="INFORMATION" transform="translate(3.000000, 2029.000000)">
                <g id="Cheaper_Icon" transform="translate(567.000000, 4.000000)">
                    <g id="Group-3" transform="translate(13.000000, 0.000000)">
                        <g id="Combined-Shape">
                            <use fill="black" fill-opacity="1" filter="url(#filter-2)" xlink:href="#path-1"></use>
                            <use fill="#FFFFFF" fill-rule="evenodd" xlink:href="#path-1"></use>
                        </g>
                        <g id="Polygone_Cheaper">
                            <use fill="black" fill-opacity="1" filter="url(#filter-4)" xlink:href="#path-3"></use>
                            <use fill="#FFFFFF" fill-rule="evenodd" xlink:href="#path-3"></use>
                        </g>
                    </g>
                </g>
            </g>
        </g>
    </g>
</svg>